<svg width="41" height="41" viewBox="0 0 41 41" fill="none" xmlns="http://www.w3.org/2000/svg">
<path d="M41 20.9013C40.7606 21.4866 40.6102 22.1315 40.2663 22.6443C39.5143 23.7627 38.3652 24.1709 37.0483 24.17C33.111 24.17 29.1742 24.17 25.2381 24.17C24.3596 24.17 24.1651 24.3672 24.1651 25.2553C24.1651 29.1934 24.1651 33.1312 24.1651 37.0687C24.1651 38.1035 23.9166 39.0586 23.1756 39.8209C22.0751 40.9475 20.7637 41.2668 19.2606 40.7787C18.0033 40.3705 16.9972 39.1072 16.8863 37.7806C16.8514 37.3696 16.8303 36.955 16.8303 36.543C16.8254 32.7664 16.8254 28.9891 16.8303 25.2112C16.8303 24.3856 16.6175 24.1727 15.7894 24.1727H3.93431C2.89984 24.1727 1.94424 23.926 1.18307 23.1865C0.0541397 22.0856 -0.266839 20.7765 0.220132 19.272C0.627316 18.0142 1.89289 17.0023 3.21257 16.8922C3.62434 16.8583 4.03794 16.8362 4.45063 16.8362C8.22717 16.832 12.0037 16.832 15.7803 16.8362C16.612 16.8362 16.8239 16.6262 16.8248 15.8014C16.8248 11.8498 16.8248 7.89887 16.8248 3.94852C16.8248 3.00543 17.0302 2.12655 17.6502 1.37978C18.2193 0.66083 19.0426 0.187927 19.9502 0.0587153C20.0008 0.0452197 20.0494 0.0254961 20.0951 0H20.8957C20.9415 0.0253379 20.9901 0.0450534 21.0406 0.0587153C21.9478 0.187916 22.7707 0.660457 23.3398 1.37886C23.957 2.12747 24.1651 3.00634 24.1651 3.9476C24.1651 7.8845 24.1651 11.8208 24.1651 15.7565C24.1651 16.6381 24.3632 16.8372 25.2427 16.8372C29.1788 16.8372 33.1146 16.8372 37.0501 16.8372C38.3671 16.8372 39.5152 17.2454 40.2663 18.3637C40.6121 18.8775 40.7616 19.5224 41 20.1068V20.9013Z" fill="#001588"/>
</svg>
