<svg width="30" height="42" viewBox="0 0 30 42" fill="none" xmlns="http://www.w3.org/2000/svg">
<path d="M13.5858 40.9142C14.3668 41.6953 15.6332 41.6953 16.4142 40.9142L29.1421 28.1863C29.9232 27.4052 29.9232 26.1389 29.1421 25.3579C28.3611 24.5768 27.0948 24.5768 26.3137 25.3579L15 36.6716L3.68629 25.3579C2.90524 24.5768 1.63891 24.5768 0.857864 25.3579C0.0768156 26.1389 0.0768156 27.4052 0.857864 28.1863L13.5858 40.9142ZM17 2C17 0.89543 16.1046 0 15 0C13.8954 0 13 0.89543 13 2H17ZM17 39.5V2H13V39.5H17Z" fill="#001588"/>
</svg>
