<svg width="29" height="35" viewBox="0 0 29 35" fill="none" xmlns="http://www.w3.org/2000/svg">
<path fill-rule="evenodd" clip-rule="evenodd" d="M4.83334 29.1973L12.0833 29.1973L12.0833 34.0635L4.83334 34.0635C2.16396 34.0635 3.62423e-06 31.8848 3.38928e-06 29.1973L8.89158e-06 4.8662C8.65663e-06 2.17866 2.16396 -1.67274e-05 4.83334 -1.69608e-05L20.3344 -1.45012e-05L29 8.72458L29 17.0317L24.1667 17.0317L24.1667 12.1655L16.9167 12.1655L16.9167 4.8662L4.83334 4.8662L4.83334 29.1973Z" fill="#FFD100"/>
<path fill-rule="evenodd" clip-rule="evenodd" d="M28.9998 29L14.73 29L14.73 24.3969L28.9998 24.3969V29Z" fill="#FFD100"/>
<path fill-rule="evenodd" clip-rule="evenodd" d="M19.3333 34.0635L19.3333 19.3334L23.9365 19.3334L23.9365 34.0635L19.3333 34.0635Z" fill="#FFD100"/>
</svg>
