<svg width="101" height="101" viewBox="0 0 101 101" fill="none" xmlns="http://www.w3.org/2000/svg">
<path d="M101 100.247C100.653 100.247 100.132 100.247 99.7852 100.247C71.1512 100.247 42.6908 100.247 14.0568 100.247C13.7097 100.247 13.3626 100.247 12.6685 100.247C13.5362 95.2369 14.4039 90.3997 15.098 85.3898C16.1392 85.5626 17.1805 85.7353 18.2217 85.9081C17.5276 89.5359 17.0069 93.1638 16.3128 96.9644C20.1307 96.9644 23.775 96.9644 27.5928 96.9644C27.9399 93.8548 28.4605 90.5725 28.8076 87.4629C28.8076 87.1174 28.9812 86.9446 28.9812 86.5991C28.9812 85.217 29.5018 84.3533 30.7166 83.6622C31.9313 82.9712 32.2784 81.5892 32.452 80.2071C32.452 79.8616 32.452 79.5161 32.452 79.1706C33.4932 79.1706 34.5344 79.1706 35.5757 79.1706C35.9227 81.9347 35.055 84.3533 32.799 86.2536C32.4519 86.5991 32.2784 86.9446 32.1049 87.2901C31.7578 90.227 31.4107 92.9911 30.8901 95.9279C30.8901 96.2734 30.8901 96.4462 30.8901 96.7917C38.8729 96.7917 46.8557 96.7917 54.8385 96.7917C54.8385 95.2369 54.8385 93.6821 54.8385 91.9545C48.4176 91.9545 41.9966 91.9545 35.4021 91.9545C35.4021 90.918 35.4021 89.8814 35.4021 88.6722C41.8231 88.6722 48.244 88.6722 54.8385 88.6722C54.8385 87.1174 55.0121 85.9081 54.3179 84.526C50.5 77.6158 47.0293 70.7056 43.2114 63.9681C42.1702 62.0678 41.6495 60.1675 41.9966 57.9216C43.0379 57.9216 44.0791 57.9216 45.1203 57.9216C45.1203 58.0944 45.2939 58.2671 45.2939 58.4399C44.9468 60.1675 45.8145 61.5495 46.5086 63.1043C49.6324 68.978 52.9296 74.8517 56.0533 80.8981C56.2268 81.2437 56.4004 81.5892 56.5739 81.9347C56.7475 81.5892 56.921 81.2437 57.0946 80.8981C60.3918 74.6789 63.689 68.4597 67.1598 62.2405C67.6805 61.204 68.2011 60.1675 68.0275 58.9582C68.0275 58.6127 68.0275 58.2671 68.0275 57.9216C69.0688 57.9216 70.11 57.9216 71.1512 57.9216C71.1512 58.0944 71.3248 58.0944 71.3248 58.0944C71.4983 59.9947 71.4983 59.9947 73.2337 60.513C77.7457 62.0678 82.4313 63.4498 86.9433 65.1774C92.1495 67.2504 95.6203 71.3966 97.0086 76.9248C98.0499 81.7619 98.744 86.7718 99.6117 91.609C100.132 94.2003 100.479 96.6189 101 99.2103C101 99.9013 101 100.074 101 100.247ZM58.6564 96.9644C66.6392 96.9644 74.622 96.9644 82.7784 96.9644C82.4313 93.6821 81.9107 90.3997 81.5636 87.1174C81.5636 86.9446 81.3901 86.5991 81.043 86.4263C78.9605 84.6988 78.0928 82.4529 78.0928 79.8616C78.0928 75.5427 78.0928 71.0511 78.0928 66.7322C78.0928 66.3867 77.9193 65.8684 77.5722 65.6956C75.3162 64.8319 73.0602 64.1408 70.8042 63.4498C70.6306 63.7953 70.4571 64.1408 70.2835 64.3136C66.6392 71.2238 62.8213 78.1341 59.177 85.0443C58.4829 86.2536 58.6564 87.4629 58.6564 89.0177C65.2509 89.0177 71.6719 89.0177 78.0928 89.0177C78.0928 90.0542 78.0928 91.0907 78.0928 92.3C71.6719 92.3 65.2509 92.3 58.6564 92.3C58.6564 93.8548 58.6564 95.4096 58.6564 96.9644ZM81.3901 67.0777C81.3901 67.2504 81.3901 67.4232 81.3901 67.596C81.3901 71.9148 81.3901 76.061 81.3901 80.3799C81.3901 82.2802 82.2578 83.4895 83.8196 84.526C84.1667 84.6988 84.5138 85.217 84.5138 85.5626C85.0344 89.1904 85.555 92.8183 85.9021 96.4462C85.9021 97.1372 86.2492 97.3099 86.9433 97.3099C90.067 97.3099 93.3643 97.3099 96.488 97.3099C96.6615 97.3099 97.0086 97.3099 97.1822 97.1372C97.1822 96.7917 97.1822 96.6189 97.1822 96.2734C96.488 92.3 95.9674 88.3266 95.0997 84.3533C94.7526 81.9347 94.4055 79.5161 93.7114 77.2703C91.6289 71.3966 87.1169 68.4597 81.3901 67.0777Z" fill="#001588"/>
<path d="M50.4999 0.0483398C54.6648 0.0483398 59.0033 0.0483398 62.8212 0.0483398C63.5154 0.566607 63.6889 1.08487 64.2095 1.08487C73.2336 4.36723 78.7868 10.5864 80.8693 20.088C81.0428 20.9518 81.3899 21.1245 82.0841 21.1245C83.2988 21.1245 84.5136 21.1245 85.9019 21.1245H86.0755C86.0755 24.2341 86.0755 27.3438 86.0755 30.6261C85.0342 30.6261 83.993 30.6261 82.9518 30.6261C83.2988 31.3171 83.4724 31.6626 83.8195 32.1809C85.9019 36.8453 83.2988 42.2007 78.2662 43.2373C77.572 43.41 77.225 43.5828 77.0514 44.2738C76.1837 46.8652 74.6219 49.2837 72.7129 51.1841C70.804 53.0844 68.7215 55.1574 66.8126 57.0577C65.2507 58.6125 63.3418 59.6491 60.9123 59.6491C58.3092 59.6491 55.7061 59.6491 53.103 59.6491C51.0205 59.6491 49.1116 58.7853 47.5497 57.4033C45.2937 55.1574 43.0377 52.9116 40.7817 50.6658C39.0463 48.7655 37.658 46.6924 36.7903 44.1011C36.6167 43.7556 36.2697 43.41 35.9226 43.2373C30.3693 42.2007 27.4192 35.8088 30.7164 30.9716C30.7164 30.7989 30.8899 30.7989 30.8899 30.4534C29.8487 30.4534 28.8075 30.4534 27.7662 30.4534C27.7662 27.171 27.7662 24.0614 27.7662 20.779C29.5016 20.779 31.0635 20.779 32.6253 20.779C32.9724 19.397 33.3195 17.8422 33.6666 16.6329C36.4432 9.03164 41.6494 3.84897 49.4587 1.08487C49.8057 0.912119 50.1528 0.566607 50.4999 0.221096C50.6734 0.221096 50.4999 0.0483398 50.4999 0.0483398ZM39.0463 30.7989C39.0463 33.563 39.0463 36.1543 39.0463 38.9184C39.0463 42.719 40.4346 45.8286 43.0377 48.5927C45.2937 50.8385 47.5497 53.0844 49.6322 55.3302C50.6734 56.3667 51.8882 56.7122 53.2765 56.7122C55.7061 56.7122 57.9621 56.7122 60.3916 56.7122C61.9535 56.7122 63.1683 56.194 64.2095 55.1574C66.292 53.0844 68.3745 51.0113 70.4569 48.9382C72.5394 46.6924 74.1013 44.1011 74.4483 41.1642C74.7954 37.8819 74.6219 34.4267 74.6219 31.1444C74.6219 31.1444 74.6219 30.9716 74.4483 30.9716C62.8212 30.7989 51.0205 30.7989 39.0463 30.7989ZM60.0446 17.6694C60.0446 12.8323 60.0446 7.99511 60.0446 3.15794C57.7886 3.15794 55.7061 3.15794 53.6236 3.15794C53.6236 7.99511 53.6236 12.8323 53.6236 17.6694C52.4088 17.6694 51.5411 17.6694 50.3264 17.6694C50.3264 15.4236 50.3264 13.1778 50.3264 11.1047C50.3264 8.85888 50.3264 6.61306 50.3264 4.36723C43.2112 6.09479 36.6167 13.8688 36.0961 20.9518C49.9793 20.9518 63.6889 20.9518 77.572 20.9518C76.8779 13.1778 69.7628 5.74928 63.3418 4.36723C63.3418 8.85888 63.3418 13.1778 63.3418 17.6694C62.3006 17.6694 61.2593 17.6694 60.0446 17.6694ZM82.9518 24.2341C65.5978 24.2341 48.2439 24.2341 31.0635 24.2341C31.0635 25.2707 31.0635 26.3072 31.0635 27.3438C48.4174 27.3438 65.7714 27.3438 82.9518 27.3438C82.9518 26.3072 82.9518 25.4434 82.9518 24.2341ZM77.9191 31.1444C77.9191 34.0812 77.9191 36.8453 77.9191 39.6094C77.9191 39.7822 77.9191 39.9549 77.9191 40.1277C79.8281 39.6094 81.0428 37.8819 81.2164 35.8088C81.3899 33.7357 80.0016 31.8354 77.9191 31.1444ZM35.749 39.9549C35.749 37.0181 35.749 34.0812 35.749 31.1444C33.6666 31.8354 32.4518 33.7357 32.6253 35.8088C32.6253 37.8819 34.0137 39.6094 35.749 39.9549Z" fill="#001588"/>
<path d="M9.02413 80.0343C7.1152 78.134 5.3798 76.4064 3.64441 74.5061C4.33857 73.8151 5.03272 73.1241 5.72688 72.4331C6.76812 73.4696 7.98289 74.8516 9.19767 76.0609C10.2389 75.3699 10.9331 74.8516 11.8008 74.3334C12.1478 74.1606 12.4949 74.1606 12.842 74.3334C13.8832 74.6789 14.9245 75.1971 16.1392 75.7154C16.6599 75.8882 17.0069 76.2337 17.0069 76.7519C17.1805 77.6157 17.354 78.4795 17.5276 79.3433C18.7423 79.3433 19.9571 79.3433 21.3454 79.3433C21.519 78.4795 21.6925 77.6157 21.866 76.7519C22.0396 76.2337 22.2131 75.8882 22.7337 75.7154C23.775 75.3699 24.9898 74.8516 26.031 74.3334C26.3781 74.1606 26.8987 74.1606 27.0722 74.3334C27.9399 74.8516 28.6341 75.3699 29.3282 75.8882C30.1959 75.0244 31.0636 73.9879 31.9313 73.1241C31.5843 72.6058 30.8901 71.742 30.543 70.8782C30.3695 70.5327 30.3695 70.0145 30.543 69.8417C30.8901 68.6324 31.4107 67.5959 31.9313 66.5594C32.1049 66.2138 32.452 65.8683 32.799 65.6956C33.6667 65.5228 34.5344 65.3501 35.4021 65.1773C35.4021 63.968 35.4021 62.7587 35.4021 61.3767C34.708 61.0312 33.8403 60.8584 32.9726 60.5129C32.6255 60.5129 32.2784 60.1674 32.2784 59.9946C31.7578 58.9581 31.4107 57.9216 31.0636 56.7123C31.9313 56.194 32.799 55.6757 33.8403 55.1575C34.0138 55.503 34.3609 55.8485 34.3609 56.194C34.708 57.4033 35.5757 57.7488 36.6169 57.9216C39.22 58.2671 39.22 58.4398 39.22 61.0312C39.22 63.1042 39.22 65.3501 39.22 67.5959C38.0052 67.9414 36.7904 68.1142 35.5757 68.2869C34.708 68.4597 34.1873 69.669 34.708 70.5327C35.4021 71.5693 36.0963 72.4331 36.6169 73.2968C34.3609 75.5427 32.2784 77.6157 30.0224 79.8616C29.1547 79.3433 28.1135 78.6523 27.0722 77.9612C26.3781 77.443 24.9898 77.9612 24.8162 78.825C24.4691 80.0343 24.2956 81.2436 24.1221 82.4529C21.1719 82.4529 18.3953 82.4529 15.4451 82.4529C15.2715 82.4529 14.9245 82.1074 14.9245 81.9346C14.7509 80.8981 14.5774 80.0343 14.2303 78.9978C14.0568 78.134 12.842 77.6157 11.9743 78.134C11.1066 78.6523 10.0654 79.3433 9.02413 80.0343Z" fill="#001588"/>
<path d="M9.54467 50.3203C8.50343 51.3569 7.63573 52.2207 6.76804 53.0844C7.28866 53.7755 7.80927 54.6392 8.32989 55.3303C8.50343 55.6758 8.50343 56.194 8.32989 56.5395C7.80927 57.5761 7.28866 58.7854 6.94158 59.8219C6.76804 60.3402 6.5945 60.5129 6.07388 60.6857C5.20618 60.8584 4.33849 61.0312 3.29725 61.204C3.29725 62.2405 3.29725 63.4498 3.29725 64.4863C3.29725 64.6591 3.64433 65.1773 3.81787 65.1773C6.07388 65.1773 7.28866 66.2139 7.63573 68.4597C7.63573 68.8052 7.98281 68.978 8.15635 69.4962C7.28865 70.0145 6.42096 70.5328 5.37972 71.051C5.20618 70.8783 5.03264 70.7055 5.03264 70.5328C4.68556 68.8052 3.47079 68.2869 1.90893 68.1142C1.38832 68.1142 0.694158 67.9414 0 67.7687C0 66.2139 0 64.8318 0 63.277C0 61.7222 0 60.3402 0 58.6126C1.21478 58.4399 2.25601 58.0943 3.47079 57.9216C4.51202 57.7488 5.03264 56.5395 4.33849 55.6758C3.64433 54.6392 3.12371 53.7755 2.42955 52.7389C3.47079 51.7024 4.51202 50.6658 5.7268 49.4566C6.76804 48.42 7.80927 47.3835 8.85051 46.1742C9.89175 46.8652 10.933 47.5562 11.8007 48.2473C12.6684 48.7655 13.8832 48.2473 14.0567 47.2107C14.2302 46.1742 14.4038 45.3104 14.7508 44.2739C14.7508 44.1011 15.0979 43.7556 15.2715 43.7556C18.0481 43.7556 20.9983 43.7556 23.9484 43.7556C24.122 44.9649 24.4691 46.1742 24.6426 47.3835C24.8161 48.2473 26.0309 48.7655 26.8986 48.2473C27.9398 47.5562 28.8075 46.8652 29.6752 46.347C31.5842 48.2473 33.3196 49.9748 35.2285 51.8751C34.5343 52.5662 33.8402 53.2572 32.9725 53.9482C31.9313 52.7389 30.7165 51.5296 29.6752 50.3203C28.634 51.0114 27.9398 51.5296 27.0721 52.0479C26.7251 52.2207 26.378 52.2207 26.0309 52.0479C24.8161 51.7024 23.7749 51.1841 22.5601 50.6658C22.213 50.4931 22.0395 50.1476 21.866 49.8021C21.6924 49.111 21.5189 48.42 21.3453 47.729C21.3453 47.038 20.9983 47.038 20.4777 47.038C19.7835 47.038 19.0893 47.038 18.3952 47.038C17.5275 47.038 17.3539 47.3835 17.3539 48.0745C17.3539 49.8021 16.3127 50.6658 14.7508 51.3569C12.4948 52.2207 11.1065 51.8751 9.54467 50.3203Z" fill="#001588"/>
<path d="M19.4364 54.9846C23.9485 54.9846 27.5928 58.6125 27.5928 63.1041C27.5928 67.5958 23.9485 71.2237 19.4364 71.2237C14.9244 71.2237 11.4536 67.5958 11.4536 63.1041C11.4536 58.6125 15.0979 54.9846 19.4364 54.9846ZM24.2955 63.1041C24.2955 60.5128 22.2131 58.267 19.4364 58.267C16.8333 58.267 14.5773 60.5128 14.5773 63.1041C14.5773 65.6955 16.8333 67.9413 19.4364 67.9413C22.2131 67.9413 24.2955 65.8682 24.2955 63.1041Z" fill="#001588"/>
<path d="M47.0292 14.5598C47.0292 15.5963 47.0292 16.6329 47.0292 17.6694C45.988 17.6694 44.9468 17.6694 43.9055 17.6694C43.9055 16.6329 43.9055 15.5963 43.9055 14.5598C44.9468 14.5598 45.988 14.5598 47.0292 14.5598Z" fill="#001588"/>
<path d="M66.639 17.6694C66.639 16.6329 66.639 15.5963 66.639 14.5598C67.6803 14.5598 68.7215 14.5598 69.7627 14.5598C69.7627 15.5963 69.7627 16.6329 69.7627 17.6694C68.895 17.6694 67.8538 17.6694 66.639 17.6694Z" fill="#001588"/>
</svg>
