<svg width="84" height="85" viewBox="0 0 84 85" fill="none" xmlns="http://www.w3.org/2000/svg">
<path d="M2.42253 1.46091H37.0985C37.8833 1.46091 38.5211 2.09793 38.5211 2.8857V37.594C38.5211 38.3818 37.8833 39.0188 37.0985 39.0188H2.42253C1.63777 39.0188 1 38.3818 1 37.594V2.8857C1 2.09793 1.63777 1.46091 2.42253 1.46091Z" stroke="#001588" stroke-width="2"/>
<path d="M46.9015 1.46091H81.5775C82.3623 1.46091 83.0001 2.09793 83.0001 2.8857V37.594C83.0001 38.3818 82.3623 39.0188 81.5775 39.0188H46.9015C46.1168 39.0188 45.479 38.3818 45.479 37.594V2.8857C45.479 2.09793 46.1168 1.46091 46.9015 1.46091Z" stroke="#001588" stroke-width="2"/>
<path d="M2.42253 45.9812H37.0985C37.8833 45.9812 38.5211 46.6182 38.5211 47.406V82.1143C38.5211 82.9021 37.8833 83.5391 37.0985 83.5391H2.42253C1.63777 83.5391 1 82.9021 1 82.1143V47.406C1 46.6182 1.63777 45.9812 2.42253 45.9812Z" stroke="#001588" stroke-width="2"/>
<path d="M64.2254 45.9812H64.2536C74.6061 45.9812 83.0001 54.3816 83.0001 64.746V64.7742C83.0001 75.1387 74.6061 83.5391 64.2536 83.5391H64.2254C53.8729 83.5391 45.479 75.1387 45.479 64.7742V64.746C45.479 54.3816 53.8729 45.9812 64.2254 45.9812Z" fill="#FFD100" stroke="#FFD100" stroke-width="2"/>
</svg>
