<svg width="81" height="80" viewBox="0 0 81 80" fill="none" xmlns="http://www.w3.org/2000/svg">
<path d="M81 42.0128C81 44.224 81 46.3785 81 48.5896C79.9667 51.3111 78.9334 51.9915 75.9483 51.9915C75.3742 51.9915 74.8001 51.9915 74.2261 51.9915C74.2261 52.9553 74.2261 53.7491 74.2261 54.5996C76.2353 55.1098 76.8668 55.8469 76.8668 57.888C76.8668 58.5117 76.8668 59.1921 76.8668 59.8157C76.8668 61.5167 75.776 62.5939 74.0539 62.6506C71.0113 62.6506 67.9688 62.6506 64.8689 62.6506C63.2041 62.6506 62.1134 61.5733 61.9986 59.9291C61.9412 59.022 61.9986 58.1715 61.9986 57.2643C62.056 56.1304 62.5726 55.3366 63.606 54.8831C63.9504 54.713 64.2948 54.6563 64.6393 54.5996C64.6393 53.7491 64.6393 52.8987 64.6393 52.0482C62.056 52.0482 59.4727 52.0482 56.832 52.0482C57.0042 52.3317 57.0617 52.5585 57.1765 52.7853C62.5726 63.1609 57.2339 75.691 45.9823 79.1495C44.7193 79.5464 43.4564 79.7165 42.1361 80C40.9879 80 39.8398 80 38.6343 80C38.4621 79.9433 38.3473 79.8866 38.1751 79.8866C25.0291 78.3558 17.5089 64.4082 23.5939 52.7853C23.7087 52.5585 23.8235 52.3317 23.9383 52.0482C21.2977 52.0482 18.7144 52.0482 16.1311 52.0482C16.1311 52.9553 16.1311 53.8058 16.1311 54.5996C18.0255 54.9965 18.7718 55.9036 18.7718 57.7746C18.7718 58.5117 18.8292 59.3055 18.7718 60.0425C18.657 61.5733 17.6237 62.6506 16.0737 62.6506C12.9164 62.7073 9.81644 62.6506 6.65911 62.6506C5.74061 62.6506 5.05174 62.2537 4.47768 61.5733C3.7314 60.5528 3.67399 56.6974 4.47768 55.7902C4.99433 55.2232 5.79802 54.8831 6.6017 54.3161C6.6017 53.7491 6.6017 52.8986 6.6017 51.9915C5.74061 51.9915 4.87952 51.9915 4.07583 51.9915C1.72218 51.9348 0.0574061 50.2339 0 47.7959C0 46.2084 0 44.6775 0 43.09C0 42.4663 0.114812 41.786 0.28703 41.1623C3.7888 28.5188 7.29057 15.8753 10.7349 3.23175C11.309 1.13395 12.8016 0 14.983 0C31.9752 0 48.9674 0 65.9022 0C68.141 0 69.5762 1.07725 70.1502 3.23175C72.7909 12.8136 75.4316 22.3955 78.0723 31.9773C79.1056 35.3225 80.0815 38.6676 81 42.0128ZM24.3402 61.2899C24.3402 70.1347 31.5734 77.2785 40.4713 77.3352C49.3692 77.3352 56.6598 70.1913 56.6598 61.3466C56.7172 52.5018 49.4841 45.3579 40.5287 45.3579C31.5733 45.3012 24.3402 52.4451 24.3402 61.2899ZM40.5287 2.66478C32.1474 2.66478 23.7087 2.66478 15.3274 2.66478C14.0071 2.66478 13.6627 2.89157 13.3182 4.13891C11.022 12.4734 8.72573 20.8646 6.37208 29.1991C5.16655 33.5081 4.01843 37.8172 2.8129 42.1828C2.52587 43.2034 3.04252 43.9405 4.13324 43.9972C4.36286 43.9972 4.59249 43.9972 4.82211 43.9972C14.1219 43.9972 23.3643 43.9972 32.6641 43.9972C33.1807 43.9972 33.6974 43.8838 34.214 43.7137C38.4047 42.2962 42.6527 42.2962 46.8434 43.7704C47.3026 43.9405 47.7619 43.9972 48.2211 43.9972C56.6598 43.9972 65.0985 43.9972 73.5372 43.9972C74.6279 43.9972 75.776 43.9972 76.8668 43.9972C77.9001 43.9405 78.4167 43.2601 78.1871 42.2395C78.1297 42.0695 78.0723 41.8994 78.0723 41.7293C74.6279 29.2558 71.1836 16.7257 67.7392 4.2523C67.3948 2.94826 67.1077 2.72147 65.73 2.72147C57.2913 2.66478 48.91 2.66478 40.5287 2.66478ZM28.6456 46.6052C19.9773 46.6052 11.3664 46.6052 2.69809 46.6052C2.69809 46.9454 2.69809 47.3423 2.69809 47.6825C2.69809 48.8164 3.21474 49.27 4.36286 49.27C11.4238 49.27 18.4848 49.27 25.5457 49.27C25.7753 49.27 26.1198 49.2133 26.2346 49.0432C27.0383 48.3062 27.7271 47.5124 28.6456 46.6052ZM52.584 46.6052C53.2154 47.3423 53.8469 48.0227 54.421 48.703C54.7654 49.1566 55.2247 49.27 55.7987 49.27C62.63 49.27 69.5188 49.27 76.3501 49.27C76.5797 49.27 76.8093 49.27 77.039 49.27C77.7278 49.2133 78.1871 48.8164 78.2445 48.1361C78.3019 47.5691 78.2445 47.0021 78.2445 46.6052C69.5762 46.6052 61.0227 46.6052 52.584 46.6052ZM6.83132 59.9291C9.98866 59.9291 13.0312 59.9291 16.1311 59.9291C16.1311 59.022 16.1311 58.2282 16.1311 57.3777C12.9738 57.3777 9.93125 57.3777 6.83132 57.3777C6.83132 58.2282 6.83132 59.0787 6.83132 59.9291ZM74.1687 57.3777C71.0113 57.3777 67.9688 57.3777 64.8689 57.3777C64.8689 58.2849 64.8689 59.0787 64.8689 59.9291C68.0262 59.9291 71.0687 59.9291 74.1687 59.9291C74.1687 59.0787 74.1687 58.2849 74.1687 57.3777ZM9.52941 51.9915C9.52941 52.8986 9.52941 53.7491 9.52941 54.5996C10.8498 54.5996 12.1701 54.5996 13.433 54.5996C13.433 53.6924 13.433 52.842 13.433 51.9915C12.1127 51.9915 10.8498 51.9915 9.52941 51.9915ZM67.567 52.0482C67.567 52.9553 67.567 53.7491 67.567 54.5996C68.8873 54.5996 70.1502 54.5996 71.4706 54.5996C71.4706 53.6924 71.4706 52.8987 71.4706 52.0482C70.1502 52.0482 68.8873 52.0482 67.567 52.0482Z" fill="#001588"/>
<path d="M36.4529 62.6506C35.764 62.6506 35.1899 62.6506 34.6159 62.6506C33.6974 62.6506 32.9511 62.3104 32.6067 61.4599C32.2622 60.6095 32.4344 59.8157 33.1233 59.1921C36.1084 56.1304 39.0361 53.1254 42.0213 50.0638C42.7101 49.3834 43.5138 49.1566 44.3175 49.4968C45.1212 49.837 45.5804 50.5741 45.523 51.5946C45.2934 53.9759 45.0064 56.3005 44.7768 58.6818C44.7193 59.0787 44.7193 59.5322 44.6619 60.0425C45.3508 60.0425 45.9823 60.0425 46.6137 60.0425C47.4748 60.0425 48.1637 60.3827 48.5081 61.1765C48.91 61.9702 48.7378 62.764 48.1063 63.3877C45.1212 66.506 42.0787 69.5677 39.0361 72.686C38.3473 73.3664 37.5436 73.4798 36.7973 73.1396C35.9936 72.7994 35.5344 72.0624 35.6492 71.0985C35.8788 68.7172 36.1658 66.3359 36.3955 63.9546C36.3381 63.5577 36.3955 63.1609 36.4529 62.6506ZM42.5379 53.2388C40.2991 55.5067 38.2325 57.6612 35.9936 59.9858C36.3955 59.9858 36.6251 59.9858 36.7973 59.9858C39.4954 59.8157 39.3806 60.7796 39.151 62.7073C38.9213 64.8618 38.6917 66.9596 38.4047 69.3409C40.6435 67.073 42.7101 64.9185 44.8916 62.6506C44.5471 62.6506 44.3749 62.5939 44.2027 62.5939C41.5046 62.764 41.562 61.8001 41.7916 59.8157C42.1361 57.7746 42.3083 55.6201 42.5379 53.2388Z" fill="#001588"/>
<path d="M40.4713 41.3324C30.3678 41.3324 20.2643 41.3324 10.1608 41.3324C9.70159 41.3324 9.18493 41.3324 8.72569 41.219C7.29053 40.8788 6.48685 39.4047 6.88869 37.9305C8.43866 32.2608 10.046 26.5344 11.596 20.8646C12.8015 16.5556 14.007 12.2466 15.1552 7.93761C15.6718 6.0099 16.4755 5.38623 18.4847 5.38623C33.1233 5.38623 47.8192 5.38623 62.4578 5.38623C64.4096 5.38623 65.2707 6.0099 65.7873 7.93761C68.4854 17.803 71.2409 27.6683 73.939 37.5336C74.4557 39.348 73.8816 40.7654 72.3316 41.219C71.8724 41.3891 71.3557 41.3891 70.8391 41.3891C60.7356 41.3324 50.6321 41.3324 40.4713 41.3324ZM25.1438 38.6109C29.8511 38.6109 34.4436 38.6109 39.0935 38.6109C39.0935 35.4925 39.0935 32.4876 39.0935 29.3692C34.788 29.3692 30.54 29.3692 26.2919 29.3692C25.8901 32.4309 25.4883 35.4925 25.1438 38.6109ZM41.9064 38.5542C46.6137 38.5542 51.2062 38.5542 55.9135 38.5542C55.5117 35.4358 55.1672 32.4309 54.7654 29.3692C50.4599 29.3692 46.2119 29.3692 41.9064 29.3692C41.9064 32.4876 41.9064 35.4925 41.9064 38.5542ZM23.5365 29.4259C23.3642 29.3692 23.2494 29.3692 23.1346 29.3692C19.6328 29.3692 16.0737 29.3692 12.5719 29.3692C12.0552 29.3692 11.9978 29.6527 11.883 29.9929C11.1367 32.6577 10.3905 35.3224 9.70159 37.9305C9.64418 38.1573 9.64418 38.3841 9.58678 38.5542C13.8922 38.5542 18.1403 38.5542 22.4457 38.5542C22.7902 35.4925 23.1346 32.4876 23.5365 29.4259ZM57.4635 29.3125C57.8653 32.4876 58.2097 35.4925 58.6116 38.5542C62.917 38.5542 67.1651 38.5542 71.4705 38.5542C71.4131 38.2707 71.3557 37.9872 71.2983 37.7604C70.6095 35.209 69.8632 32.6577 69.1743 30.1063C69.0021 29.4259 68.7151 29.2558 68.0262 29.2558C64.8114 29.3125 61.5967 29.2558 58.382 29.2558C58.1523 29.3125 57.8653 29.3125 57.4635 29.3125ZM39.0935 17.3494C35.2473 17.3494 31.5159 17.3494 27.7271 17.3494C27.3253 20.4677 26.9808 23.5294 26.579 26.591C30.7696 26.591 34.9029 26.591 39.0935 26.591C39.0935 23.5294 39.0935 20.4677 39.0935 17.3494ZM53.2728 17.3494C49.4266 17.3494 45.6952 17.3494 41.9064 17.3494C41.9064 20.4677 41.9064 23.4727 41.9064 26.591C46.097 26.591 50.2303 26.591 54.4209 26.591C54.0191 23.5294 53.6747 20.4677 53.2728 17.3494ZM12.8015 26.6477C16.5329 26.6477 20.1495 26.6477 23.8809 26.6477C24.2827 23.5294 24.6272 20.5244 25.029 17.4061C21.8143 17.4061 18.5995 17.4061 15.3848 17.4061C14.5237 20.411 13.6626 23.4727 12.8015 26.6477ZM57.119 26.591C60.8504 26.591 64.467 26.591 68.1984 26.591C67.3373 23.4727 66.4762 20.411 65.6725 17.3494C62.4578 17.3494 59.243 17.3494 56.0283 17.3494C56.3727 20.4677 56.7746 23.5294 57.119 26.591ZM28.8178 8.05101C28.5308 10.2622 28.3012 12.4734 28.0141 14.6279C31.7455 14.6279 35.3621 14.6279 39.0361 14.6279C39.0361 12.4167 39.0361 10.2622 39.0361 8.05101C35.6491 8.05101 32.3196 8.05101 28.8178 8.05101ZM41.9064 14.6279C45.5804 14.6279 49.2544 14.6279 52.9284 14.6279C52.6413 12.4167 52.4117 10.2055 52.1247 8.05101C48.6803 8.05101 45.2934 8.05101 41.9064 8.05101C41.9064 10.2622 41.9064 12.4167 41.9064 14.6279ZM25.316 14.6279C25.6031 12.4167 25.8327 10.2055 26.1197 7.99431C23.479 7.99431 20.8958 7.99431 18.3125 7.99431C18.1403 7.99431 17.9107 8.2778 17.8533 8.44789C17.5088 9.63853 17.1644 10.7725 16.8774 11.9631C16.6477 12.8136 16.4181 13.664 16.1885 14.5712C19.231 14.6279 22.2161 14.6279 25.316 14.6279ZM64.8688 14.6279C64.2948 12.5301 63.7207 10.4323 63.0893 8.33449C63.0318 8.1644 62.63 7.99431 62.4004 7.99431C60.3912 7.93761 58.382 7.99431 56.3727 7.99431C55.8561 7.99431 55.3968 7.99431 54.8228 7.99431C55.1098 10.3189 55.3968 12.4734 55.6265 14.6279C58.7838 14.6279 61.7689 14.6279 64.8688 14.6279Z" fill="#001588"/>
</svg>
