<svg width="56" height="56" viewBox="0 0 56 56" fill="none" xmlns="http://www.w3.org/2000/svg">
<g clip-path="url(#clip0_185_691)">
<path d="M36.1658 55.5C35.193 55.0781 34.8486 54.341 34.8607 53.2837C34.902 49.6501 34.8762 46.0147 34.8762 42.3811V41.7767H21.1257V42.3381C21.1257 44.9866 21.1257 47.6369 21.1257 50.2855C21.1285 50.7043 20.9785 51.1098 20.7039 51.426C20.4294 51.7422 20.049 51.9475 19.634 52.0034C19.219 52.0594 18.7978 51.9621 18.4493 51.7299C18.1008 51.4977 17.8489 51.1464 17.7407 50.7419C17.6983 50.5148 17.6816 50.2838 17.6907 50.053C17.6907 47.3149 17.6907 44.5768 17.6907 41.7543H17.1088C13.9044 41.7543 10.7001 41.7543 7.49584 41.7543C6.15799 41.7543 5.29364 40.5488 5.79641 39.3795C6.1029 38.67 6.67454 38.3204 7.45108 38.3187H10.8155V37.6902C10.8155 34.5215 10.8155 31.3529 10.8155 28.1842C10.8276 19.8752 16.3632 12.9817 24.4644 11.1838C33.4729 9.18275 42.7156 15.0775 44.7301 24.1528C45.0121 25.5005 45.1598 26.8729 45.1709 28.2497C45.2329 31.5768 45.1916 34.9073 45.1916 38.3187H47.0632C47.5642 38.3187 48.0653 38.3187 48.5663 38.3187C49.5788 38.3359 50.3346 39.0627 50.345 40.0167C50.3553 40.9707 49.5925 41.7491 48.5526 41.7526C45.3293 41.7526 42.1078 41.7526 38.8846 41.7526H38.3164V42.3312C38.3164 45.9837 38.2905 49.6363 38.3301 53.2871C38.3422 54.341 38.003 55.0832 37.0267 55.5034L36.1658 55.5ZM23.0456 15.1102L23.1713 15.2101C23.0748 15.241 22.9784 15.2686 22.8837 15.3048C20.3563 16.3068 18.1851 18.04 16.6478 20.2827C15.1106 22.5255 14.2771 25.1759 14.254 27.8949C14.2385 31.2048 14.254 34.5146 14.254 37.8245C14.254 37.9778 14.2729 38.131 14.2815 38.2688H17.689V37.58C17.689 33.7156 17.658 29.8512 17.7062 25.9869C17.7255 22.9162 18.8224 19.9498 20.8055 17.6055C21.52 16.7462 22.2983 15.9419 23.0456 15.1102Z" fill="#001588"/>
<path d="M0.5 27.5695C0.91668 26.5879 1.65879 26.209 2.71426 26.2693C3.65954 26.3227 4.60826 26.2693 5.56042 26.2831C6.60557 26.2917 7.37177 27.0236 7.3735 28.0052C7.37522 28.9868 6.60901 29.7135 5.56215 29.7273C4.61342 29.7359 3.66814 29.6842 2.7177 29.7393C1.66051 29.8013 0.920123 29.4173 0.5 28.4391V27.5695Z" fill="#FFD100"/>
<path d="M29.7192 3.92005C29.7192 4.49179 29.7296 5.06524 29.7192 5.64214C29.7406 5.8803 29.7121 6.12031 29.6357 6.34686C29.5592 6.57342 29.4364 6.78156 29.275 6.95804C29.1137 7.13451 28.9174 7.27545 28.6986 7.37188C28.4799 7.4683 28.2434 7.5181 28.0043 7.5181C27.7652 7.5181 27.5288 7.4683 27.31 7.37188C27.0912 7.27545 26.8949 7.13451 26.7336 6.95804C26.5722 6.78156 26.4494 6.57342 26.373 6.34686C26.2965 6.12031 26.268 5.8803 26.2894 5.64214C26.2739 4.49695 26.2722 3.35177 26.2894 2.19797C26.33 1.77142 26.5281 1.37533 26.8451 1.08707C27.162 0.798801 27.575 0.639069 28.0034 0.639069C28.4319 0.639069 28.8449 0.798801 29.1618 1.08707C29.4788 1.37533 29.6769 1.77142 29.7175 2.19797C29.733 2.77314 29.7192 3.3466 29.7192 3.92005Z" fill="#FFD100"/>
<path d="M52.0839 29.7169C51.5106 29.7169 50.9389 29.7272 50.3621 29.7169C50.1234 29.7406 49.8824 29.7141 49.6546 29.6392C49.4267 29.5643 49.217 29.4426 49.0389 29.2819C48.8608 29.1212 48.7182 28.9251 48.6203 28.7061C48.5224 28.4871 48.4714 28.25 48.4704 28.0101C48.4694 27.7703 48.5186 27.5328 48.6147 27.313C48.7109 27.0932 48.8519 26.896 49.0287 26.7339C49.2055 26.5717 49.4142 26.4484 49.6414 26.3716C49.8687 26.2949 50.1095 26.2665 50.3483 26.2882C51.4962 26.2722 52.6441 26.2722 53.792 26.2882C54.2186 26.3271 54.6155 26.5236 54.905 26.8395C55.1945 27.1554 55.3559 27.5678 55.3577 27.9963C55.3594 28.4248 55.2013 28.8386 54.9143 29.1567C54.6274 29.4749 54.2321 29.6746 53.8058 29.7169C53.2307 29.7324 52.6573 29.7169 52.0839 29.7169Z" fill="#FFD100"/>
<path d="M47.967 9.9818C47.8499 10.2005 47.7088 10.6706 47.416 10.9858C46.6584 11.8193 45.8458 12.6028 45.0348 13.3864C44.2996 14.0976 43.2613 14.0941 42.5829 13.4088C41.9045 12.7234 41.908 11.6867 42.6208 10.9565C43.4214 10.1368 44.229 9.32396 45.0537 8.53008C45.287 8.28944 45.5897 8.12772 45.9194 8.06751C46.2491 8.0073 46.5893 8.05162 46.8926 8.19427C47.571 8.47325 47.8964 9.02087 47.967 9.9818Z" fill="#FFD100"/>
<path d="M13.9372 11.9949C13.8838 12.8852 13.5928 13.4294 12.9471 13.7377C12.3014 14.0459 11.6282 13.9925 11.0979 13.4966C10.1957 12.6539 9.32212 11.782 8.47728 10.8807C8.19603 10.5531 8.04945 10.1309 8.0671 9.69941C8.08475 9.26791 8.2653 8.85914 8.57237 8.55552C8.87944 8.2519 9.29017 8.07601 9.72178 8.0633C10.1534 8.05059 10.5738 8.20201 10.8982 8.48704C11.7832 9.32053 12.6475 10.1798 13.4706 11.0702C13.7305 11.356 13.8339 11.7848 13.9372 11.9949Z" fill="#FFD100"/>
</g>
<defs>
<clipPath id="clip0_185_691">
<rect width="55" height="55" fill="white" transform="translate(0.5 0.5)"/>
</clipPath>
</defs>
</svg>
