<svg width="70" height="51" viewBox="0 0 70 51" fill="none" xmlns="http://www.w3.org/2000/svg">
<path d="M70 27.0029C69.6142 27.564 69.0881 27.7394 68.4217 27.7043C67.8956 27.6693 67.3344 27.7043 66.7382 27.7043C66.7382 28.02 66.7382 28.3006 66.7382 28.5461C66.7382 35.3854 66.7382 42.2248 66.7382 49.0641C66.7382 50.3618 66.4225 50.6775 65.1248 50.6775C45.0627 50.6775 24.9656 50.6775 4.90352 50.6775C3.6058 50.6775 3.29014 50.3618 3.29014 49.0641C3.29014 42.2598 3.29014 35.4205 3.29014 28.6162C3.29014 28.3356 3.29014 28.0551 3.29014 27.7043C2.62374 27.7043 1.95735 27.7043 1.32602 27.7043C0.764846 27.7043 0.343964 27.564 0.0984489 27.0029C-0.147066 26.4417 0.0984489 26.0559 0.484258 25.6701C1.60661 24.5828 2.69389 23.4604 3.92146 22.2329C2.9394 22.2329 2.13271 22.2329 1.32602 22.2329C0.764846 22.2329 0.343964 22.0926 0.0984489 21.5665C-0.147066 21.0053 0.0984489 20.6195 0.484258 20.2337C6.93779 13.7451 13.3913 7.29153 19.8448 0.837999C20.1254 0.557411 20.6165 0.382043 20.9672 0.382043C30.3318 0.34697 39.6965 0.34697 49.026 0.34697C49.5872 0.34697 50.0081 0.522337 50.2185 1.04844C50.429 1.57454 50.2185 1.96035 49.8678 2.34616C48.7454 3.43344 47.6231 4.55579 46.3604 5.81844C47.3425 5.81844 48.1141 5.74829 48.8857 5.85351C49.3417 5.88859 49.9029 6.06396 50.2185 6.37962C56.6721 12.7981 63.0905 19.2165 69.509 25.635C69.6843 25.8104 69.8246 25.9857 70 26.1611C70 26.4768 70 26.7223 70 27.0029ZM65.9315 25.4596C60.3548 19.8479 54.7079 14.2361 49.2365 8.72954C43.6598 14.3062 38.048 19.918 32.5064 25.4596C33.6638 25.5298 33.9093 25.8104 33.9093 27.1432C33.9093 33.9825 33.9093 40.8218 33.9093 47.6612C33.9093 47.9067 33.9093 48.1873 33.9093 48.4328C36.8906 48.4328 39.7315 48.4328 42.6777 48.4328C42.6777 48.1522 42.6777 47.9067 42.6777 47.6612C42.6777 42.6106 42.6777 37.56 42.6777 32.4743C42.6777 31.3169 43.0285 30.9662 44.1508 30.9662C47.5179 30.9662 50.8849 30.9662 54.252 30.9662C55.4445 30.9662 55.7601 31.2818 55.7601 32.5094C55.7601 37.56 55.7601 42.6106 55.7601 47.6962C55.7601 47.9418 55.7601 48.1873 55.7601 48.4328C58.7063 48.4328 61.5824 48.4328 64.5285 48.4328C64.5285 48.1171 64.5285 47.8365 64.5285 47.5559C64.5285 40.7868 64.5285 34.0176 64.5285 27.2484C64.5285 25.8104 64.7039 25.635 65.9315 25.4596ZM5.49977 48.4328C14.2682 48.4328 22.9664 48.4328 31.6646 48.4328C31.6646 41.4882 31.6646 34.6138 31.6646 27.7394C22.9313 27.7394 14.2331 27.7394 5.49977 27.7394C5.49977 34.6489 5.49977 41.5233 5.49977 48.4328ZM53.5505 48.4328C53.5505 43.312 53.5505 38.2615 53.5505 33.2109C50.6394 33.2109 47.7634 33.2109 44.8873 33.2109C44.8873 38.2965 44.8873 43.3471 44.8873 48.4328C47.7634 48.4328 50.6394 48.4328 53.5505 48.4328ZM3.7461 25.4596C3.99161 25.4947 4.09683 25.4947 4.16698 25.4947C12.3391 25.4947 20.4762 25.4947 28.6483 25.4947C28.9289 25.4947 29.2446 25.3193 29.455 25.1089C34.9966 19.5673 40.5382 14.0256 46.0798 8.48403C46.2201 8.34374 46.3254 8.20344 46.5007 7.993C46.0097 7.993 45.659 8.02807 45.2732 7.993C44.5015 7.88778 43.9754 8.20344 43.4493 8.72954C39.2054 13.0085 34.9615 17.2524 30.7176 21.4963C30.2266 22.0224 29.7005 22.2329 28.964 22.1978C21.844 22.1627 14.7592 22.1978 7.63926 22.1978C7.35867 22.1978 6.97286 22.2679 6.79749 22.4433C5.78036 23.4254 4.83338 24.4074 3.7461 25.4596ZM36.6801 2.52153C36.3645 2.52153 36.154 2.52153 35.9787 2.52153C34.1899 2.52153 32.3661 2.48646 30.5773 2.5566C30.2266 2.5566 29.8408 2.73197 29.5953 2.97748C27.3506 5.18712 25.1059 7.43182 22.8612 9.67653C22.7209 9.81682 22.6157 9.95712 22.3701 10.2026C22.6858 10.2026 22.8962 10.2026 23.1067 10.2026C24.8954 10.2026 26.7193 10.2377 28.508 10.1676C28.8587 10.1676 29.2446 9.99219 29.4901 9.74668C31.7348 7.53704 33.9795 5.29234 36.2242 3.04763C36.3294 2.94241 36.4697 2.80212 36.6801 2.52153ZM32.1557 10.2026C34.4705 10.2026 36.5749 10.2026 38.6793 10.2026C38.8898 10.2026 39.1002 9.99219 39.2756 9.81682C41.5554 7.57212 43.8351 5.29234 46.0798 3.01256C46.1851 2.90734 46.2903 2.76704 46.5007 2.5566C44.256 2.5566 42.1516 2.5566 40.0472 2.5566C39.9069 2.5566 39.7315 2.62675 39.6263 2.73197C37.2062 5.18712 34.7511 7.60719 32.1557 10.2026ZM12.5145 20.0232C14.7943 20.0232 16.9337 20.0232 19.0732 20.0232C19.2486 20.0232 19.424 19.8479 19.5643 19.7076C21.9142 17.3576 24.2641 15.0077 26.614 12.6578C26.6842 12.5876 26.7193 12.5175 26.8245 12.3772C24.5798 12.3772 22.4403 12.3772 20.3359 12.3772C20.1956 12.3772 20.0553 12.4824 19.9501 12.5876C17.4949 15.0428 15.0748 17.4629 12.5145 20.0232ZM22.3351 20.0232C24.5096 20.0232 26.4737 20.0583 28.4729 19.9881C28.8237 19.9881 29.2095 19.8128 29.455 19.5673C31.6997 17.3576 33.9444 15.1129 36.1891 12.8682C36.3294 12.7279 36.4346 12.5876 36.6801 12.3421C34.4354 12.3421 32.331 12.3421 30.2266 12.3421C30.0863 12.3421 29.8759 12.4473 29.7707 12.5876C27.3155 15.0428 24.8954 17.4629 22.3351 20.0232ZM26.8596 2.52153C25.1059 2.52153 23.4574 2.48646 21.844 2.5566C21.4933 2.5566 21.1075 2.73197 20.862 2.97748C18.5822 5.18712 16.3375 7.43182 14.1279 9.64146C13.9876 9.78175 13.8473 9.92204 13.6368 10.1676C15.3905 10.1676 17.039 10.2026 18.6523 10.1325C19.0031 10.1325 19.3889 9.95712 19.6344 9.7116C21.8791 7.50197 24.1238 5.25726 26.3685 3.01256C26.4737 2.94241 26.614 2.80212 26.8596 2.52153ZM3.71102 20.0232C5.53485 20.0232 7.1833 20.0583 8.83176 19.9881C9.14742 19.9881 9.53323 19.8128 9.77874 19.6023C12.0585 17.3576 14.3383 15.0779 16.583 12.7981C16.6882 12.6929 16.7935 12.5526 16.9688 12.3421C15.8465 12.3421 14.7943 12.4473 13.8122 12.307C12.0936 12.0966 10.866 12.6929 9.67352 13.9906C7.8497 16.095 5.81543 17.9539 3.71102 20.0232Z" fill="#001588"/>
<path d="M49.2015 16.7614C52.2178 16.7614 54.6729 19.2165 54.6729 22.2329C54.6729 25.2492 52.1827 27.7043 49.1664 27.6693C46.1851 27.6693 43.73 25.2141 43.73 22.2329C43.73 19.2165 46.1851 16.7614 49.2015 16.7614ZM52.4984 22.1978C52.4984 20.409 51.0253 18.9359 49.2365 18.9359C47.4127 18.9359 45.9396 20.4441 45.9396 22.2329C45.9396 24.0216 47.4478 25.4947 49.2015 25.4947C51.0253 25.4947 52.4984 24.0216 52.4984 22.1978Z" fill="#001588"/>
<path d="M18.5473 44.1187C15.3907 44.1187 12.2691 44.1187 9.11249 44.1187C7.99014 44.1187 7.6394 43.768 7.6394 42.6456C7.6394 39.2435 7.6394 35.8414 7.6394 32.4743C7.6394 31.352 7.99014 31.0012 9.11249 31.0012C15.4257 31.0012 21.739 31.0012 28.0522 31.0012C29.1746 31.0012 29.5253 31.352 29.5253 32.4743C29.5253 35.8765 29.5253 39.2786 29.5253 42.6456C29.5253 43.768 29.1746 44.1187 28.0522 44.1187C24.8956 44.1187 21.7039 44.1187 18.5473 44.1187ZM17.46 33.2109C14.8996 33.2109 12.4094 33.2109 9.88411 33.2109C9.88411 36.122 9.88411 38.998 9.88411 41.874C12.4445 41.874 14.9347 41.874 17.46 41.874C17.46 38.998 17.46 36.122 17.46 33.2109ZM27.3157 33.2109C24.7553 33.2109 22.23 33.2109 19.7398 33.2109C19.7398 36.122 19.7398 38.998 19.7398 41.874C22.3001 41.874 24.7904 41.874 27.3157 41.874C27.3157 38.998 27.3157 36.122 27.3157 33.2109Z" fill="#001588"/>
</svg>
