<svg width="44" height="51" viewBox="0 0 44 51" fill="none" xmlns="http://www.w3.org/2000/svg">
<g clip-path="url(#clip0_188_816)">
<path d="M-0.0110054 25.4348C-0.0110054 21.5493 -0.0110054 17.6638 -0.0110054 13.7783C-0.026479 13.3982 0.0645651 13.0214 0.251497 12.6919C0.438428 12.3625 0.713563 12.0939 1.0448 11.9174C7.5379 8.11505 14.0348 4.3242 20.5052 0.487302C20.9429 0.184611 21.4598 0.0227661 21.989 0.0227661C22.5181 0.0227661 23.0351 0.184611 23.4728 0.487302C29.9432 4.3242 36.4288 8.13423 42.9294 11.9174C43.262 12.0926 43.5384 12.3608 43.7261 12.6905C43.9138 13.0202 44.005 13.3976 43.989 13.7783C43.989 21.4252 43.9588 29.076 43.989 36.7268C44.0258 37.2442 43.9094 37.761 43.6546 38.2104C43.3999 38.6597 43.0186 39.021 42.5599 39.2476C36.0442 43.0512 29.541 46.8728 23.0505 50.7122C22.7345 50.9155 22.3684 51.0233 21.9946 51.0233C21.6209 51.0233 21.2548 50.9155 20.9389 50.7122C14.4232 46.8754 7.90362 43.0385 1.38035 39.2016C0.937345 38.9862 0.568393 38.64 0.321552 38.2082C0.0747114 37.7763 -0.0385385 37.2788 -0.00345664 36.7805C0.0380208 32.9973 -0.00345664 29.2141 -0.00345664 25.4271L-0.0110054 25.4348ZM38.1557 13.6977C37.9974 13.5826 37.9333 13.5327 37.8654 13.4905C32.7021 10.4543 27.5413 7.41801 22.383 4.38175C22.2484 4.29897 22.0916 4.26112 21.9348 4.2735C21.7779 4.28588 21.6287 4.34788 21.5082 4.45081C16.4806 7.41801 11.4405 10.3788 6.38782 13.3332C6.22191 13.433 6.0673 13.5481 5.85991 13.6901C6.01074 13.7937 6.10125 13.8666 6.20306 13.9241C11.3312 16.9373 16.4568 19.9531 21.5799 22.9715C21.7224 23.0607 21.8888 23.1024 22.0558 23.0907C22.2228 23.079 22.382 23.0145 22.5112 22.9063C27.2874 20.0926 32.0636 17.2788 36.8398 14.4651L38.1557 13.6977ZM3.91428 17.1279C3.91428 17.3121 3.87281 17.4272 3.87281 17.5385C3.87281 23.5969 3.87278 29.6515 3.89163 35.7061C3.90537 35.8343 3.94618 35.9579 4.01126 36.0685C4.07635 36.1791 4.16417 36.2741 4.2687 36.3469C9.39179 39.3781 14.5212 42.3964 19.6568 45.402C19.7795 45.4605 19.9054 45.5117 20.0339 45.5555V45.1718C20.0339 39.1351 20.0339 33.0996 20.0339 27.0655C20.0466 26.905 20.0093 26.7446 19.9274 26.6069C19.8455 26.4692 19.7232 26.3611 19.5776 26.2981C14.6833 23.4358 9.79402 20.5671 4.90974 17.6919L3.91428 17.1279ZM23.9215 45.6169C24.1175 45.5094 24.2382 45.448 24.3551 45.379C29.4732 42.376 34.5899 39.3768 39.7055 36.3814C39.852 36.3012 39.9701 36.1762 40.0431 36.0241C40.1162 35.872 40.1405 35.7004 40.1128 35.5335C40.1128 29.6221 40.1128 23.7095 40.1128 17.7955V17.1202C39.9054 17.2315 39.7847 17.2929 39.6678 17.362C34.5548 20.3624 29.4392 23.3616 24.3212 26.3595C24.1855 26.4308 24.0742 26.5423 24.0022 26.6793C23.9301 26.8164 23.9007 26.9724 23.9177 27.1269C23.9177 33.0817 23.9177 39.0353 23.9177 44.9876L23.9215 45.6169Z" fill="#001588"/>
</g>
<defs>
<clipPath id="clip0_188_816">
<rect width="44" height="51" fill="white"/>
</clipPath>
</defs>
</svg>
