<svg width="21" height="21" viewBox="0 0 21 21" fill="none" xmlns="http://www.w3.org/2000/svg">
<path d="M10.7036 2.54704C13.3161 2.54704 13.6255 2.55703 14.6572 2.6041C15.6111 2.64759 16.1292 2.80698 16.4739 2.94097C16.9306 3.11846 17.2565 3.33047 17.5989 3.67282C17.9413 4.01521 18.1533 4.34113 18.3308 4.79782C18.4648 5.14258 18.6242 5.66063 18.6677 6.61455C18.7147 7.64623 18.7247 7.95568 18.7247 10.5681C18.7247 13.1805 18.7147 13.49 18.6677 14.5216C18.6242 15.4756 18.4648 15.9936 18.3308 16.3384C18.1533 16.7951 17.9413 17.121 17.5989 17.4633C17.2565 17.8057 16.9306 18.0177 16.4739 18.1952C16.1292 18.3292 15.6111 18.4886 14.6572 18.5321C13.6257 18.5792 13.3162 18.5891 10.7036 18.5891C8.09101 18.5891 7.78164 18.5792 6.75007 18.5321C5.79615 18.4886 5.2781 18.3292 4.93333 18.1952C4.47665 18.0177 4.15072 17.8057 3.80837 17.4633C3.46602 17.121 3.25396 16.7951 3.07648 16.3384C2.94249 15.9936 2.7831 15.4756 2.7396 14.5216C2.69253 13.49 2.68255 13.1805 2.68255 10.5681C2.68255 7.95568 2.69253 7.64623 2.7396 6.61455C2.7831 5.66063 2.94249 5.14258 3.07648 4.79782C3.25396 4.34113 3.46598 4.01521 3.80837 3.67286C4.15072 3.33047 4.47665 3.11846 4.93333 2.94097C5.2781 2.80698 5.79615 2.64759 6.75007 2.6041C7.78175 2.55703 8.09121 2.54704 10.7036 2.54704ZM10.7036 0.78418C8.04647 0.78418 7.71328 0.795443 6.66972 0.843057C5.62833 0.890555 4.9171 1.05596 4.29477 1.2978C3.65139 1.54784 3.10576 1.88238 2.5618 2.4263C2.01788 2.97025 1.68334 3.51588 1.43334 4.15926C1.19146 4.78159 1.02605 5.49282 0.978555 6.5342C0.930941 7.57776 0.919678 7.91094 0.919678 10.5681C0.919678 13.2252 0.930941 13.5584 0.978555 14.602C1.02605 15.6434 1.19146 16.3546 1.43334 16.9769C1.68334 17.6203 2.01788 18.1659 2.5618 18.7099C3.10576 19.2538 3.65139 19.5884 4.29477 19.8384C4.9171 20.0802 5.62833 20.2456 6.66972 20.2931C7.71328 20.3407 8.04647 20.352 10.7036 20.352C13.3608 20.352 13.694 20.3407 14.7375 20.2931C15.7789 20.2456 16.4902 20.0802 17.1125 19.8384C17.7559 19.5884 18.3015 19.2538 18.8455 18.7099C19.3894 18.1659 19.7239 17.6203 19.974 16.9769C20.2158 16.3546 20.3812 15.6434 20.4287 14.602C20.4763 13.5584 20.4876 13.2252 20.4876 10.5681C20.4876 7.91094 20.4763 7.57776 20.4287 6.5342C20.3812 5.49282 20.2158 4.78159 19.974 4.15926C19.7239 3.51588 19.3894 2.97025 18.8455 2.4263C18.3015 1.88238 17.7559 1.54784 17.1125 1.2978C16.4902 1.05596 15.7789 0.890555 14.7375 0.843057C13.694 0.795443 13.3608 0.78418 10.7036 0.78418Z" fill="white"/>
<path d="M10.7082 5.54834C7.93335 5.54834 5.68396 7.79772 5.68396 10.5725C5.68396 13.3473 7.93335 15.5967 10.7082 15.5967C13.4829 15.5967 15.7323 13.3473 15.7323 10.5725C15.7323 7.79772 13.4829 5.54834 10.7082 5.54834ZM10.7082 13.8338C8.90696 13.8338 7.44683 12.3737 7.44683 10.5725C7.44683 8.77133 8.90696 7.31121 10.7082 7.31121C12.5093 7.31121 13.9695 8.77133 13.9695 10.5725C13.9695 12.3737 12.5093 13.8338 10.7082 13.8338Z" fill="white"/>
<path d="M17.1046 5.34646C17.1046 5.99485 16.579 6.52051 15.9305 6.52051C15.2821 6.52051 14.7565 5.99485 14.7565 5.34646C14.7565 4.69803 15.2821 4.17236 15.9305 4.17236C16.579 4.17236 17.1046 4.69803 17.1046 5.34646Z" fill="white"/>
</svg>
