<svg width="56" height="56" viewBox="0 0 56 56" fill="none" xmlns="http://www.w3.org/2000/svg">
<path d="M28.133 0H27.8249C26.9432 0 26.2285 0.714256 26.2285 1.59534V5.36443C26.2285 6.24551 26.9432 6.95977 27.8249 6.95977H28.133C29.0147 6.95977 29.7294 6.24551 29.7294 5.36443V1.59534C29.7294 0.714256 29.0147 0 28.133 0Z" fill="#001588"/>
<path d="M54.4035 27.0134H52.1023C51.2206 27.0134 50.5059 27.7277 50.5059 28.6088V28.9166C50.5059 29.7977 51.2206 30.512 52.1023 30.512H54.4035C55.2852 30.512 55.9999 29.7977 55.9999 28.9166V28.6088C55.9999 27.7277 55.2852 27.0134 54.4035 27.0134Z" fill="#001588"/>
<path d="M41.9915 38.498C42.5937 38.498 43.1352 38.498 43.6813 38.498C43.9184 38.4857 44.1556 38.5218 44.3784 38.6041C44.6011 38.6863 44.8048 38.813 44.977 38.9765C45.1492 39.1399 45.2864 39.3366 45.3801 39.5547C45.4738 39.7727 45.5221 40.0076 45.5221 40.2449C45.5221 40.4822 45.4738 40.7171 45.3801 40.9351C45.2864 41.1532 45.1492 41.3499 44.977 41.5133C44.8048 41.6768 44.6011 41.8035 44.3784 41.8857C44.1556 41.968 43.9184 42.0041 43.6813 41.9918C41.9869 41.9918 40.2925 41.9918 38.5047 41.9918V42.6356C38.5047 46.4606 38.5047 50.2873 38.5047 54.1154C38.5269 54.4529 38.4504 54.7895 38.2847 55.0843C38.1189 55.3791 37.871 55.6195 37.5711 55.7761C37.3016 55.9345 36.9919 56.0114 36.6795 55.9973C36.3671 55.9832 36.0655 55.8788 35.8113 55.6968C35.5429 55.5206 35.3265 55.2758 35.1845 54.988C35.0426 54.7001 34.9802 54.3795 35.0038 54.0595C35.0038 50.2531 35.0038 46.4451 35.0038 42.6356V42.0198H21.0003V42.6402C21.0003 46.484 21.0003 50.3292 21.0003 54.1761C21.0169 54.5715 20.8971 54.9606 20.6609 55.2782C20.4246 55.5958 20.0863 55.8226 19.7026 55.9207C19.3502 56.027 18.9724 56.0127 18.6291 55.88C18.2858 55.7474 17.9967 55.5039 17.8075 55.1884C17.6175 54.8204 17.5168 54.4129 17.5134 53.9988C17.5134 50.2437 17.5134 46.4886 17.5134 42.7382V41.9918H12.4395C11.2912 41.9918 10.493 41.2548 10.507 40.2192C10.521 39.1837 11.3052 38.5026 12.4348 38.498H14.0079V28.2356C13.9471 24.8384 15.1251 21.5352 17.3222 18.9422C19.5192 16.3491 22.5852 14.6435 25.9482 14.1435C33.2487 12.926 40.6285 18.2111 41.8188 25.5254C41.9612 26.4423 42.0361 27.3684 42.0429 28.2962C42.0055 31.6688 41.9915 35.0601 41.9915 38.498ZM17.4761 38.456H38.4813V38.0921C38.4813 34.6869 38.4813 31.277 38.4813 27.8717C38.4778 27.3068 38.4247 26.7434 38.3226 26.1878C37.2444 20.5435 32.3291 16.9516 26.5924 17.6C22.0132 18.1178 18.0595 22.0315 17.5928 26.6216C17.4294 28.2262 17.4901 29.8589 17.4761 31.4776C17.4621 33.7913 17.4761 36.105 17.4761 38.456Z" fill="#001588"/>
<path d="M5.34 27.0601H1.5964C0.714732 27.0601 0 27.7743 0 28.6554V28.912C0 29.793 0.714732 30.5073 1.5964 30.5073H5.34C6.22167 30.5073 6.9364 29.793 6.9364 28.912V28.6554C6.9364 27.7743 6.22167 27.0601 5.34 27.0601Z" fill="#001588"/>
<path d="M13.0933 13.0519L13.0512 13.0939C12.9029 13.2422 12.7269 13.3599 12.533 13.4403C12.3392 13.5206 12.1315 13.5619 11.9216 13.5619C11.7118 13.5619 11.504 13.5206 11.3102 13.4403C11.1163 13.3599 10.9403 13.2422 10.792 13.0939L8.23402 10.5376C7.93529 10.2377 7.76758 9.83186 7.76758 9.40874C7.76758 8.98562 7.93529 8.57972 8.23402 8.27987L8.27601 8.23789C8.42428 8.08951 8.60036 7.97179 8.79419 7.89148C8.98802 7.81117 9.19582 7.76984 9.40565 7.76984C9.61548 7.76984 9.82322 7.81117 10.0171 7.89148C10.2109 7.97179 10.387 8.08951 10.5352 8.23789L13.0933 10.7942C13.2417 10.9423 13.3595 11.1183 13.4399 11.312C13.5202 11.5057 13.5616 11.7133 13.5616 11.923C13.5616 12.1327 13.5202 12.3404 13.4399 12.5341C13.3595 12.7278 13.2417 12.9037 13.0933 13.0519Z" fill="#001588"/>
<path d="M45.4335 8.2615L42.8562 10.838C42.2329 11.4612 42.233 12.4713 42.8566 13.0942L42.883 13.1206C43.5065 13.7435 44.5173 13.7433 45.1406 13.1202L47.718 10.5436C48.3413 9.92051 48.3411 8.91038 47.7176 8.28748L47.6912 8.2611C47.0676 7.63819 46.0568 7.63838 45.4335 8.2615Z" fill="#001588"/>
</svg>
