<svg width="60" height="63" viewBox="0 0 60 63" fill="none" xmlns="http://www.w3.org/2000/svg">
<path d="M24.6175 60.6175C24.6175 59.3515 24.6175 58.1559 24.6175 57.0306C24.5471 54.2173 25.2505 51.5447 25.7428 48.8017C25.8131 48.3797 26.3054 48.0984 26.5164 47.6764C26.5868 47.6764 26.6571 47.7467 26.7274 47.7467C26.7274 47.4654 26.7274 47.1841 26.7274 46.9028C26.7274 39.8695 26.7274 32.766 26.7274 25.7328C26.7274 25.1701 26.5868 24.7481 26.1648 24.2558C24.9691 22.9195 23.7735 21.5129 22.5075 20.1062C20.8899 18.2776 18.2876 17.0819 16.3183 17.1523C16.5996 17.9259 16.9513 18.6996 17.0919 19.5436C17.3733 20.8095 16.9513 21.3019 15.615 21.3019C15.1226 21.3019 14.9116 21.3722 14.7006 21.8645C13.9973 23.5525 12.661 24.3965 10.8324 24.4668C9.42574 24.5372 8.01909 24.5372 6.54212 24.4668C4.71349 24.3965 3.37718 23.5525 2.67386 21.8645C2.53319 21.5832 2.39253 21.3722 1.9002 21.4425C0.423231 21.5832 0.141903 20.8095 0.352899 19.5436C0.774892 17.1523 2.67386 15.2533 5.13548 15.183C9.14441 15.0423 13.083 15.1127 17.0919 15.2533C19.9755 15.394 22.2965 16.8006 24.1955 18.9106C25.0395 19.8249 25.8131 20.7392 26.7274 21.7942C26.7274 19.1919 26.7274 16.66 26.7274 14.128C26.4461 14.128 26.1648 14.0577 25.8834 14.0577C23.4922 14.0577 21.1009 14.0577 18.7799 14.0577C17.4436 14.0577 17.0919 13.5653 17.4436 12.3697C18.4282 8.71243 19.4129 5.1255 20.3975 1.46823C20.5382 0.553911 20.9602 0.272583 21.8042 0.272583C28.6264 0.272583 35.3783 0.272583 42.2005 0.272583C43.4665 0.272583 43.8885 0.764908 43.5368 2.03088C42.5521 5.61782 41.5675 9.27509 40.5828 12.862C40.3015 13.8467 40.0905 13.9873 39.0355 13.9873C37.0662 13.9873 35.1673 13.9873 33.1276 13.9873C33.1276 16.5193 33.1276 18.9809 33.1276 21.6535C33.4793 21.2315 33.7606 20.9502 34.042 20.6689C35.0969 19.6139 36.0113 18.4183 37.1366 17.4336C39.0355 15.816 41.3565 15.1127 43.8885 15.0423C47.2644 15.0423 50.7107 15.0423 54.1569 15.0423C57.1109 15.0423 59.5022 17.2929 59.5725 20.0359C59.5725 20.9502 59.2208 21.3722 58.3065 21.3722C57.6735 21.3722 57.3219 21.5129 57.0406 22.1459C56.3372 23.6932 55.0713 24.4668 53.3833 24.5372C51.9063 24.6075 50.4293 24.6075 48.9524 24.5372C47.1237 24.4668 45.7874 23.5525 45.1544 21.8645C45.0138 21.4425 44.8028 21.3019 44.3808 21.3722C42.9038 21.5832 42.4818 20.7392 42.8335 19.4029C43.0445 18.6293 43.3258 17.9259 43.6071 17.1523C41.4268 17.2929 39.4575 18.0666 37.9102 19.6842C36.3629 21.3019 34.8859 23.0602 33.409 24.7481C33.2683 24.9591 33.198 25.2405 33.198 25.5218C33.198 32.766 33.198 40.0102 33.198 47.2544C33.198 47.6061 33.2683 47.8171 33.62 48.0281C33.9716 48.2391 34.1826 48.7314 34.3233 49.1534C34.9563 52.5997 35.5893 56.1163 35.3079 59.7032C35.3079 59.9845 35.3079 60.2659 35.3079 60.6175C35.6596 60.6175 35.9409 60.6175 36.2223 60.6175C38.3322 60.6175 40.4422 60.6175 42.5521 60.6175C43.2555 60.6175 43.7478 61.0395 43.7478 61.6725C43.7478 62.3055 43.2555 62.6571 42.5521 62.7275C42.3411 62.7275 42.2005 62.7275 41.9895 62.7275C30.8067 62.7275 19.6239 62.7275 8.44109 62.7275C8.15976 62.7275 7.8081 62.7275 7.52677 62.6571C6.96411 62.5165 6.61245 62.0945 6.75312 61.6022C6.82345 61.2505 7.24544 60.8988 7.5971 60.6175C7.73777 60.4768 8.08943 60.5472 8.37076 60.5472C13.505 60.5472 18.6392 60.5472 23.7031 60.5472C23.9141 60.6175 24.2658 60.6175 24.6175 60.6175ZM30.9473 47.8874C30.9473 36.5639 30.9473 25.3108 30.9473 14.0577C30.244 14.0577 29.611 14.0577 28.9077 14.0577C28.9077 25.3811 28.9077 36.5639 28.9077 47.8874C29.611 47.8874 30.244 47.8874 30.9473 47.8874ZM27.7121 50.0677C26.8681 53.5843 26.5164 57.0306 26.8681 60.6175C28.9781 60.6175 31.0177 60.6175 33.0573 60.6175C33.3386 57.0306 32.987 53.5843 32.2133 50.0677C30.666 50.0677 29.189 50.0677 27.7121 50.0677ZM33.409 11.9477C35.0969 11.9477 36.6442 11.9477 38.1916 11.9477C38.4026 11.9477 38.6839 11.6664 38.7542 11.3851C39.1059 10.2597 39.3872 9.13443 39.6685 8.00911C40.1609 6.18048 40.6532 4.28151 41.2158 2.38255C39.4575 2.38255 37.7696 2.38255 36.0113 2.38255C35.1673 5.54749 34.3233 8.71243 33.409 11.9477ZM33.831 2.38255C32.143 2.38255 30.5957 2.38255 29.0484 2.38255C28.8374 2.38255 28.5561 2.59354 28.4857 2.80454C28.2044 3.57819 27.9934 4.42218 27.7824 5.26616C27.2197 7.44646 26.5868 9.62675 25.9538 11.8774C27.6417 11.8774 29.2594 11.8774 30.8067 11.8774C30.9474 11.8774 31.2287 11.6664 31.2287 11.4554C32.143 8.50144 32.987 5.54749 33.831 2.38255ZM26.3758 2.38255C25.1801 2.38255 24.0548 2.45288 22.9295 2.38255C22.3668 2.38255 22.1558 2.59354 22.0152 3.1562C21.3119 5.82882 20.5382 8.50144 19.8349 11.2444C19.7646 11.4554 19.7646 11.7367 19.6942 12.018C20.8899 12.018 22.0855 12.018 23.2108 12.018C23.7031 12.018 23.9141 11.8774 23.9845 11.3851C24.4768 9.41575 25.0395 7.51679 25.5318 5.54749C25.8131 4.49251 26.0944 3.50786 26.3758 2.38255ZM14.9116 19.2622C14.349 17.9963 13.4347 17.2929 12.1687 17.2226C9.91806 17.1523 7.5971 17.1523 5.34648 17.2226C4.0805 17.2226 3.02552 18.0666 2.67386 19.2622C6.75312 19.2622 10.762 19.2622 14.9116 19.2622ZM57.2515 19.2622C56.6889 17.9963 55.7746 17.2929 54.5086 17.2226C52.258 17.1523 49.937 17.1523 47.6864 17.2226C46.4204 17.2226 45.3654 18.1369 45.0841 19.2622C49.093 19.2622 53.102 19.2622 57.2515 19.2622ZM12.661 21.5129C10.0587 21.5129 7.52677 21.5129 4.92448 21.5129C5.48714 22.2865 5.90913 22.4975 6.68279 22.4975C8.0191 22.4975 9.42574 22.4975 10.762 22.4975C11.5357 22.4975 12.1687 22.2162 12.661 21.5129ZM55.0009 21.5129C52.3986 21.5129 49.8667 21.5129 47.2644 21.5129C47.7567 22.2162 48.3194 22.4975 49.093 22.4975C50.4293 22.4975 51.836 22.4975 53.1723 22.4975C53.8756 22.4975 54.5086 22.2162 55.0009 21.5129Z" fill="#001588"/>
<path d="M15.6151 49.9974C13.5754 49.9974 11.9578 48.3797 11.8875 46.3401C11.8875 44.2301 13.5754 42.6125 15.6151 42.6125C17.6547 42.6125 19.2723 44.3005 19.2723 46.3401C19.3427 48.3797 17.6547 49.9974 15.6151 49.9974ZM14.0677 46.3401C14.0677 47.1841 14.7711 47.9577 15.6151 47.8874C16.459 47.8874 17.1624 47.1137 17.1624 46.2698C17.1624 45.4258 16.459 44.6521 15.5447 44.7225C14.7711 44.7225 14.0677 45.4961 14.0677 46.3401Z" fill="#001588"/>
<path d="M51.1326 62.7275C49.7963 62.7275 48.5303 62.7275 47.194 62.7275C46.35 62.7275 45.8577 62.3055 45.8577 61.6725C45.8577 61.0395 46.35 60.6175 47.194 60.6175C49.7963 60.6175 52.4689 60.6175 55.0712 60.6175C55.9152 60.6175 56.4075 61.0395 56.4075 61.6725C56.4075 62.3055 55.9152 62.7275 55.0712 62.7275C53.7349 62.7275 52.3985 62.7275 51.1326 62.7275Z" fill="#001588"/>
<path d="M47.8975 48.3797C47.1942 48.872 46.7018 49.927 45.6469 49.083C45.0842 48.5907 45.2249 48.0984 46.2798 46.8324C45.7875 46.1994 44.6622 45.5664 45.6469 44.5818C46.5612 43.6675 47.1942 44.7928 47.8271 45.2851C48.5305 44.7928 49.0228 43.7378 50.0778 44.5818C50.6404 45.0741 50.4998 45.5664 49.4448 46.8324C49.9371 47.4654 51.0624 48.0984 50.0778 49.083C49.1635 49.9974 48.6008 48.9424 47.8975 48.3797Z" fill="#001588"/>
<path d="M9.77744 28.3351C9.77744 28.8977 9.77744 29.39 9.77744 29.9527C9.77744 30.5857 9.35545 30.9373 8.72246 31.0077C8.08947 31.0077 7.66748 30.656 7.66748 30.023C7.66748 28.968 7.66748 27.8427 7.66748 26.7878C7.66748 26.1548 8.08947 25.8031 8.72246 25.8031C9.28512 25.8031 9.70711 26.1548 9.70711 26.7878C9.77744 27.2097 9.77744 27.7724 9.77744 28.3351Z" fill="#001588"/>
<path d="M50.0776 28.3351C50.0776 27.7724 50.0776 27.2801 50.0776 26.7174C50.0776 26.0844 50.4996 25.7328 51.1326 25.7328C51.6953 25.7328 52.1173 26.0844 52.1173 26.7174C52.1173 27.8427 52.1173 28.9681 52.1173 30.023C52.1173 30.656 51.6953 31.0077 51.1326 31.0077C50.4996 31.0077 50.0776 30.656 50.0776 30.023C50.0073 29.3901 50.0776 28.8977 50.0776 28.3351Z" fill="#001588"/>
<path d="M4.57284 28.8978C3.72886 28.8978 3.1662 27.9834 3.65853 27.3504C4.01019 26.7878 4.50251 26.2955 5.06517 25.9438C5.3465 25.7328 5.97949 25.8031 6.26081 26.0141C6.54214 26.2251 6.68281 26.8581 6.54214 27.0691C6.04982 27.7021 5.41683 28.2648 4.85417 28.8274C4.78384 28.8978 4.57284 28.8274 4.57284 28.8978Z" fill="#001588"/>
<path d="M11.7467 25.6625C12.661 25.6625 14.138 27.1394 13.9973 27.7724C13.927 28.1241 13.716 28.5461 13.4346 28.6868C13.1533 28.8274 12.661 28.8274 12.3797 28.6164C11.8873 28.2648 11.395 27.8428 11.1137 27.2801C10.9027 26.9988 10.9027 26.5065 11.0433 26.2251C11.184 25.9438 11.606 25.8031 11.7467 25.6625Z" fill="#001588"/>
<path d="M49.0931 26.6471C48.9525 26.9988 48.8821 27.2098 48.7415 27.3504C48.3195 27.7724 47.9678 28.1944 47.4755 28.6164C46.9832 29.0384 46.4909 28.9681 46.0689 28.5461C45.7172 28.1241 45.6469 27.6317 45.9985 27.2098C46.3502 26.7878 46.7722 26.2954 47.2645 25.9438C47.5458 25.7328 48.0382 25.7328 48.3195 25.8031C48.6712 25.9438 48.8118 26.3658 49.0931 26.6471Z" fill="#001588"/>
<path d="M56.4075 27.8428C56.4075 28.6164 55.4932 29.1791 54.9305 28.7571C54.3679 28.3351 53.8052 27.8428 53.3832 27.2801C52.9612 26.6471 53.4536 25.8031 54.2272 25.8031C54.9305 25.6625 56.4075 27.1395 56.4075 27.8428Z" fill="#001588"/>
<path d="M44.2401 34.5947C44.8731 34.5947 45.4357 35.087 45.4357 35.72C45.4357 36.353 44.8731 36.9156 44.1697 36.9156C43.5368 36.9156 43.0444 36.353 43.0444 35.72C43.0444 35.087 43.5368 34.5947 44.2401 34.5947Z" fill="#001588"/>
</svg>
