<svg width="19" height="18" viewBox="0 0 19 18" fill="none" xmlns="http://www.w3.org/2000/svg">
<path fill-rule="evenodd" clip-rule="evenodd" d="M4.71501 2.6463C4.71501 3.66146 3.94205 4.483 2.73328 4.483C1.5716 4.483 0.79864 3.66146 0.822561 2.6463C0.79864 1.5818 1.57158 0.78418 2.75643 0.78418C3.94204 0.78418 4.69184 1.5818 4.71501 2.6463ZM0.919746 17.7586V5.93397H4.59465V17.7578H0.919746V17.7586Z" fill="white"/>
<path fill-rule="evenodd" clip-rule="evenodd" d="M7.54018 9.7069C7.54018 8.232 7.49158 6.97463 7.44299 5.93481H10.635L10.8047 7.55473H10.8772C11.3609 6.80495 12.5696 5.66943 14.5282 5.66943C16.9457 5.66943 18.7593 7.26543 18.7593 10.746V17.7594H15.0844V11.2065C15.0844 9.68222 14.5529 8.64314 13.223 8.64314C12.2071 8.64314 11.6031 9.34434 11.3616 10.0209C11.2644 10.2631 11.2166 10.6009 11.2166 10.9403V17.7594H7.54166V9.7069H7.54018Z" fill="white"/>
</svg>
