<svg width="170" height="58" viewBox="0 0 170 58" fill="none" xmlns="http://www.w3.org/2000/svg">
<path d="M77.878 0.40555C80.8812 0.225878 83.8362 1.22336 86.1173 3.18673C87.1503 4.17862 87.9561 5.38295 88.4791 6.7167C89.0021 8.05044 89.2299 9.48186 89.1468 10.9122V26.3633H84.6316V22.8868H84.4386C83.6313 24.209 82.4967 25.3002 81.1445 26.0548C79.7923 26.8093 78.2684 27.2016 76.7203 27.1937C74.1865 27.2689 71.716 26.3941 69.7931 24.7409C68.8785 23.9908 68.1449 23.0437 67.6471 21.9702C67.1493 20.8967 66.9001 19.7245 66.918 18.5412C66.8791 17.3468 67.1269 16.1605 67.6406 15.0818C68.1543 14.0031 68.9189 13.0634 69.8703 12.3415C72.1511 10.7043 74.921 9.89372 77.7237 10.0431C80.121 9.95166 82.5011 10.484 84.6316 11.5882V10.4873C84.6359 9.69278 84.4652 8.90704 84.1317 8.186C83.7982 7.46496 83.31 6.82634 82.702 6.31556C81.4463 5.18989 79.8145 4.57652 78.1289 4.59664C76.8906 4.56973 75.6663 4.86313 74.5745 5.44847C73.4826 6.03381 72.5602 6.89127 71.8963 7.93792L67.7477 5.33056C68.8779 3.71447 70.4015 2.41391 72.1743 1.55205C73.947 0.690189 75.9103 0.295564 77.878 0.40555ZM71.7806 18.6377C71.7828 19.2391 71.9253 19.8315 72.1966 20.368C72.4679 20.9045 72.8607 21.3702 73.3435 21.7279C74.3904 22.5417 75.6845 22.9712 77.0097 22.9447C78.9998 22.9419 80.9077 22.1503 82.3161 20.7429C83.0456 20.093 83.6293 19.2957 84.0284 18.4035C84.4275 17.5112 84.6331 16.5444 84.6316 15.5669C82.8422 14.308 80.6786 13.6951 78.4955 13.8286C76.7925 13.7655 75.1146 14.2531 73.7101 15.2192C73.1293 15.5829 72.6486 16.0862 72.3116 16.6832C71.9746 17.2802 71.7921 17.9521 71.7806 18.6377Z" fill="#001588"/>
<path d="M94.5493 1.21679H99.0452V4.71258H99.2575C100.034 3.41094 101.147 2.34331 102.48 1.62238C103.897 0.833755 105.49 0.41528 107.111 0.405612C108.412 0.32063 109.717 0.510567 110.94 0.963089C112.164 1.41561 113.278 2.1206 114.212 3.03228C115.969 5.12603 116.853 7.81639 116.682 10.5453V26.3247H111.916V10.8737C111.916 6.76628 109.87 4.71258 105.779 4.71258C104.872 4.70353 103.975 4.90453 103.159 5.29987C102.342 5.69521 101.627 6.2742 101.071 6.99161C99.7944 8.51562 99.1093 10.4494 99.1417 12.4381V26.3247H94.5493V1.21679Z" fill="#001588"/>
<path d="M141.168 19.3137C141.162 20.3968 140.897 21.4628 140.398 22.4234C139.898 23.384 139.176 24.2115 138.293 24.8374C136.218 26.3973 133.67 27.1951 131.076 27.0971C128.711 27.1564 126.386 26.4818 124.419 25.1657C122.543 23.9 121.112 22.0757 120.329 19.951L124.516 18.1742C125.064 19.574 126.001 20.7873 127.217 21.67C128.334 22.4959 129.688 22.9365 131.076 22.9253C132.398 22.9804 133.707 22.6445 134.839 21.9597C135.27 21.7382 135.636 21.4078 135.9 21.0012C136.164 20.5947 136.317 20.1261 136.344 19.642C136.344 18.039 135.128 16.8608 132.659 16.1076L128.356 15.0646C123.48 13.7771 121.043 11.4143 121.043 7.9765C121.019 6.89913 121.262 5.83263 121.75 4.87216C122.238 3.9117 122.956 3.08714 123.84 2.47207C125.78 1.20001 128.028 0.477984 130.346 0.382761C132.663 0.287538 134.963 0.822682 137 1.93129C138.725 2.8763 140.083 4.37219 140.859 6.18032L136.653 7.91855C136.164 6.86218 135.344 5.99423 134.318 5.44639C133.214 4.83751 131.971 4.52481 130.71 4.53864C129.518 4.52472 128.348 4.86772 127.352 5.52365C126.931 5.72751 126.571 6.03794 126.307 6.42416C126.043 6.81037 125.885 7.25895 125.847 7.72542C125.847 9.15463 127.198 10.1783 129.899 10.7963L133.758 11.762C138.711 13.0367 141.181 15.5539 141.168 19.3137Z" fill="#001588"/>
<path d="M158.052 27.1552C156.302 27.1778 154.574 26.7735 153.015 25.977C151.587 25.2658 150.375 24.1856 149.504 22.8482H149.311L149.504 26.3247V42.5869H144.718V1.21677H149.233V4.71256H149.426C150.314 3.36007 151.555 2.2777 153.015 1.58373C155.245 0.458995 157.787 0.114162 160.235 0.604258C162.683 1.09435 164.897 2.39113 166.522 4.28766C168.84 6.89326 170.082 10.2832 169.996 13.7707C170.07 17.2436 168.805 20.6117 166.465 23.1765C165.448 24.4261 164.165 25.4321 162.709 26.1205C161.253 26.809 159.662 27.1625 158.052 27.1552ZM157.299 22.8482C158.375 22.8656 159.442 22.6443 160.423 22.2002C161.404 21.7561 162.274 21.1001 162.972 20.2795C164.56 18.4937 165.391 16.1591 165.288 13.7707C165.373 11.3851 164.544 9.05698 162.972 7.26198C162.27 6.44793 161.398 5.7978 160.418 5.35734C159.438 4.91687 158.373 4.69678 157.299 4.71256C156.206 4.68635 155.121 4.90116 154.121 5.34175C153.121 5.78235 152.229 6.43793 151.51 7.26198C149.991 9.0827 149.194 11.3996 149.272 13.7707C149.18 16.1616 149.977 18.5016 151.51 20.3374C152.234 21.1534 153.127 21.801 154.127 22.2347C155.127 22.6685 156.21 22.8779 157.299 22.8482Z" fill="#001588"/>
<path d="M25.4125 0H1.65944C0.742955 0 0 0.743648 0 1.66098V25.4362C0 26.3536 0.742955 27.0972 1.65944 27.0972H25.4125C26.329 27.0972 27.072 26.3536 27.072 25.4362V1.66098C27.072 0.743648 26.329 0 25.4125 0Z" fill="#001588"/>
<path d="M55.8808 0H32.1277C31.2112 0 30.4683 0.743648 30.4683 1.66098V25.4362C30.4683 26.3536 31.2112 27.0972 32.1277 27.0972H55.8808C56.7973 27.0972 57.5402 26.3536 57.5402 25.4362V1.66098C57.5402 0.743648 56.7973 0 55.8808 0Z" fill="#001588"/>
<path d="M25.4125 30.4965H1.65944C0.742955 30.4965 0 31.2401 0 32.1574V55.9327C0 56.85 0.742955 57.5937 1.65944 57.5937H25.4125C26.329 57.5937 27.072 56.85 27.072 55.9327V32.1574C27.072 31.2401 26.329 30.4965 25.4125 30.4965Z" fill="#001588"/>
<path d="M44.0139 30.4965H43.9946C36.5242 30.4965 30.4683 36.5581 30.4683 44.0354V44.0547C30.4683 51.5321 36.5242 57.5937 43.9946 57.5937H44.0139C51.4843 57.5937 57.5402 51.5321 57.5402 44.0547V44.0354C57.5402 36.5581 51.4843 30.4965 44.0139 30.4965Z" fill="#FFD100"/>
<path d="M72.9959 40.559C73.0035 40.8794 72.9379 41.1973 72.8042 41.4885C72.6704 41.7797 72.472 42.0365 72.224 42.2393C71.6715 42.6623 70.9897 42.8807 70.2945 42.8573C69.6607 42.8674 69.0421 42.6633 68.5385 42.2779C68.0155 41.8383 67.6609 41.2309 67.5352 40.559L68.5192 40.1534C68.5738 40.3853 68.665 40.6069 68.7894 40.8101C68.9096 40.9944 69.0522 41.163 69.2139 41.3122C69.3686 41.4443 69.5448 41.5489 69.7349 41.6212C69.9316 41.6984 70.1411 41.7377 70.3523 41.7371C70.7605 41.7558 71.1626 41.633 71.4908 41.3895C71.6376 41.2755 71.7559 41.129 71.8362 40.9614C71.9166 40.7937 71.9569 40.6097 71.9539 40.4238C71.9534 40.26 71.9189 40.0982 71.8524 39.9485C71.786 39.7989 71.6891 39.6647 71.568 39.5547C71.1917 39.2415 70.7499 39.017 70.2752 38.898C69.8713 38.7667 69.4779 38.6053 69.0981 38.4152C68.7144 38.2616 68.3867 37.9944 68.1591 37.6491C67.9315 37.3039 67.8148 36.8973 67.8246 36.4838C67.8213 36.1968 67.8819 35.9127 68.0021 35.6521C68.1222 35.3915 68.2989 35.161 68.5192 34.9773C69.0028 34.55 69.6303 34.3222 70.2752 34.34C70.8397 34.3339 71.3923 34.5025 71.8574 34.8228C72.2729 35.0919 72.5856 35.4934 72.745 35.9623L71.7802 36.3679C71.6984 36.0695 71.5139 35.8095 71.2592 35.634C70.9789 35.4299 70.6411 35.3199 70.2945 35.3199C69.9478 35.3199 69.61 35.4299 69.3297 35.634C69.1934 35.7194 69.0823 35.8395 69.0077 35.9821C68.9331 36.1246 68.8977 36.2844 68.9052 36.4452C68.9079 36.5804 68.9384 36.7137 68.9948 36.8366C69.0513 36.9596 69.1324 37.0696 69.2332 37.1598C69.7125 37.4679 70.2319 37.7084 70.7768 37.8744C71.434 38.0501 72.0331 38.3966 72.5135 38.8787C72.7084 39.1085 72.8522 39.3772 72.9353 39.6669C73.0185 39.9566 73.0392 40.2607 72.9959 40.559Z" fill="#1C1C1C"/>
<path d="M76.0832 42.6254H75.0605V34.6488H76.0832L78.8618 39.4966L81.6404 34.6488H82.6631V42.6254H81.6404V37.8935V36.5416L79.1127 40.9258H78.4952L76.006 36.5416V37.8935L76.0832 42.6254Z" fill="#1C1C1C"/>
<path d="M85.615 42.6254H84.4766L87.4674 34.6488H88.6252L91.6353 42.6254H90.4969L89.7443 40.5588H86.3868L85.615 42.6254ZM88.027 35.9042L86.8306 39.4966H89.4742L88.1814 35.9042H88.027Z" fill="#1C1C1C"/>
<path d="M94.4333 42.6254H93.4106V34.6488H96.1314C96.7825 34.6356 97.4129 34.8782 97.8873 35.3248C98.1254 35.5378 98.3144 35.8002 98.441 36.0937C98.5677 36.3872 98.6289 36.7048 98.6205 37.0244C98.6242 37.5631 98.4322 38.0848 98.0802 38.4923C97.7294 38.9112 97.246 39.1975 96.7102 39.3035L98.9485 42.5482H97.7329L95.5718 39.4H94.4333V42.6254ZM94.4333 35.6145V38.4343H96.0928C96.48 38.4422 96.8545 38.2964 97.1347 38.0287C97.2748 37.9017 97.3867 37.7467 97.4631 37.5737C97.5396 37.4007 97.5789 37.2136 97.5785 37.0244C97.5801 36.8415 97.545 36.6601 97.4754 36.4909C97.4058 36.3218 97.3031 36.1682 97.1733 36.0394C97.0404 35.9031 96.8812 35.7952 96.7055 35.7222C96.5297 35.6491 96.341 35.6125 96.1507 35.6145H94.4333Z" fill="#1C1C1C"/>
<path d="M103.406 35.6145V42.6254H102.383V35.6145H100.145V34.6488H105.625V35.6145H103.406Z" fill="#1C1C1C"/>
<path d="M72.726 46.72V47.705H69.0984V50.2158H72.3594V51.1621H69.0984V53.6922H72.726V54.6772H68.0757V46.72H72.726Z" fill="#1C1C1C"/>
<path d="M75.9675 54.6966H74.9448V46.72H76.1798L80.0389 52.9197V51.3939V46.72H81.0423V54.6966H79.981L75.9675 48.2844V49.8295V54.6966Z" fill="#1C1C1C"/>
<path d="M88.1815 46.72V47.705H84.5539V50.2158H87.8149V51.1621H84.5539V53.6922H88.1815V54.6772H83.5312V46.72H88.1815Z" fill="#1C1C1C"/>
<path d="M91.4236 54.6965H90.4009V46.7199H93.1023C93.759 46.7077 94.395 46.9499 94.8775 47.3959C95.1127 47.6113 95.2996 47.8742 95.426 48.1671C95.5524 48.46 95.6153 48.7765 95.6107 49.0955C95.6077 49.633 95.4165 50.1524 95.0705 50.5634C94.7167 50.9788 94.2346 51.2643 93.7005 51.3745L95.9388 54.6193H94.7231L92.6199 51.4711H91.4814L91.4236 54.6965ZM91.4236 47.7049V50.5054H93.0637C93.4572 50.5163 93.8389 50.3704 94.125 50.0998C94.2645 49.9734 94.3748 49.8181 94.4481 49.6446C94.5214 49.4711 94.556 49.2838 94.5495 49.0955C94.5483 48.7268 94.4028 48.3732 94.1443 48.1105C94.014 47.9773 93.8576 47.8725 93.6849 47.8027C93.5123 47.733 93.327 47.6996 93.1409 47.7049H91.4236Z" fill="#1C1C1C"/>
<path d="M105.336 51.0269C105.361 51.5148 105.287 52.0028 105.118 52.4611C104.949 52.9194 104.688 53.3383 104.352 53.6922C103.974 54.0847 103.517 54.3925 103.011 54.5956C102.506 54.7987 101.963 54.8923 101.419 54.8704C100.588 54.8841 99.7721 54.649 99.0758 54.1952C98.3795 53.7414 97.8346 53.0896 97.5111 52.3236C97.1876 51.5576 97.1001 50.7123 97.2601 49.8962C97.42 49.0802 97.8199 48.3305 98.4086 47.7436C98.785 47.3477 99.2411 47.0362 99.7467 46.8298C100.252 46.6234 100.796 46.5267 101.342 46.5461C101.909 46.5405 102.473 46.6454 103.001 46.8552C103.486 47.0433 103.922 47.3407 104.274 47.7243L103.541 48.4582C103.285 48.1549 102.961 47.9166 102.596 47.7629C102.197 47.6 101.772 47.5148 101.342 47.5118C100.932 47.5044 100.526 47.5812 100.148 47.7373C99.7692 47.8935 99.4269 48.1257 99.1418 48.4196C98.5723 49.0455 98.2567 49.8617 98.2567 50.7083C98.2567 51.5549 98.5723 52.371 99.1418 52.997C99.6992 53.5258 100.426 53.8394 101.193 53.8818C101.96 53.9243 102.717 53.6928 103.329 53.2287C103.594 52.9978 103.81 52.7168 103.965 52.4019C104.121 52.087 104.213 51.7445 104.236 51.3939H101.342V50.4282H105.201C105.264 50.6232 105.309 50.8236 105.336 51.0269Z" fill="#1C1C1C"/>
<path d="M110.237 50.9883V54.6966H109.214V50.9883L106.532 46.72H107.728L109.658 49.9647L111.587 46.72H112.803L110.237 50.9883Z" fill="#1C1C1C"/>
</svg>
