<svg width="30" height="58" viewBox="0 0 30 58" fill="none" xmlns="http://www.w3.org/2000/svg">
<g clip-path="url(#clip0_186_802)">
<path d="M20.6804 1.07979V3.34204H21.3527C22.7462 3.35671 24.1398 3.32444 25.5275 3.40073C27.7953 3.5269 29.763 5.53974 29.9274 7.83134C29.9678 8.3771 29.9909 8.92286 29.9909 9.47156C29.9909 23.7982 29.9909 38.1258 29.9909 52.4544C29.9909 54.2765 29.4629 55.8258 27.9972 56.9642C27.1186 57.6444 26.04 58.0031 24.9361 57.9824C18.3002 57.9824 11.6643 58.0029 5.05145 57.9824C2.0653 57.9824 0.0110717 55.7759 -0.00335414 52.6334C-0.01778 48.9334 -0.00335414 45.2334 -0.00335414 41.5334C-0.00335414 30.6417 -0.00335414 19.75 -0.00335414 8.8583C-0.00335414 7.05965 0.521743 5.52214 1.95856 4.38955C2.90016 3.66782 4.05789 3.29884 5.23611 3.34498H9.09069V1.07685C9.09069 0.790476 9.20256 0.515833 9.40168 0.313335C9.60079 0.110837 9.87086 -0.00292569 10.1524 -0.00292569H19.6158C19.7557 -0.00331288 19.8943 0.0244285 20.0237 0.0787028C20.153 0.132977 20.2705 0.21271 20.3695 0.313326C20.4684 0.413943 20.5468 0.533458 20.6002 0.664993C20.6535 0.796529 20.6808 0.937496 20.6804 1.07979ZM3.30017 30.6534V52.5659C3.30017 54.0565 3.87721 54.6433 5.36596 54.6433C11.7883 54.6433 18.2107 54.6433 24.6331 54.6433C26.1161 54.6433 26.696 54.0565 26.696 52.5659V8.79962C26.696 7.27385 26.119 6.68701 24.6043 6.68701H5.39481C3.88298 6.68701 3.30017 7.27385 3.30017 8.79962V30.6534Z" fill="#001588"/>
<path d="M23.3176 17.9425H6.65862C5.79976 17.9425 5.10352 18.6506 5.10352 19.524V23.626C5.10352 24.4995 5.79976 25.2075 6.65862 25.2075H23.3176C24.1765 25.2075 24.8727 24.4995 24.8727 23.626V19.524C24.8727 18.6506 24.1765 17.9425 23.3176 17.9425Z" fill="#001588"/>
<path d="M23.3294 36.2166H6.67327C5.81441 36.2166 5.11816 36.9247 5.11816 37.7981V41.8913C5.11816 42.7648 5.81441 43.4729 6.67327 43.4729H23.3294C24.1882 43.4729 24.8845 42.7648 24.8845 41.8913V37.7981C24.8845 36.9247 24.1882 36.2166 23.3294 36.2166Z" fill="#001588"/>
<path d="M23.3148 45.3683H6.66155C5.80269 45.3683 5.10645 46.0764 5.10645 46.9499V51.0431C5.10645 51.9165 5.80269 52.6246 6.66155 52.6246H23.3148C24.1736 52.6246 24.8699 51.9165 24.8699 51.0431V46.9499C24.8699 46.0764 24.1736 45.3683 23.3148 45.3683Z" fill="#001588"/>
<path d="M23.3352 27.0913H6.6762C5.81734 27.0913 5.12109 27.7994 5.12109 28.6728V32.7337C5.12109 33.6072 5.81734 34.3153 6.6762 34.3153H23.3352C24.194 34.3153 24.8903 33.6072 24.8903 32.7337V28.6728C24.8903 27.7994 24.194 27.0913 23.3352 27.0913Z" fill="#001588"/>
</g>
<defs>
<clipPath id="clip0_186_802">
<rect width="30" height="58" fill="white"/>
</clipPath>
</defs>
</svg>
