<svg width="101" height="101" viewBox="0 0 101 101" fill="none" xmlns="http://www.w3.org/2000/svg">
<path d="M101 26.27C100.676 27.7848 100.459 29.3536 100.027 30.8683C96.9989 41.5796 87.2125 48.7205 75.9663 48.3959C65.1526 48.1254 55.6906 40.3354 53.2575 29.7323C53.0953 29.0831 52.8249 28.7585 52.1761 28.5962C42.8763 26.4323 33.4143 32.4372 31.4138 41.7419C29.3592 51.3172 35.523 60.7301 45.0932 62.4072C54.0685 63.976 61.3678 59.1072 64.2875 51.8582C64.8822 50.3975 65.477 49.9647 66.4502 50.2893C67.4234 50.668 67.6397 51.4795 67.045 52.9401C65.5851 56.5646 63.2602 59.54 60.0701 61.8121C59.7998 61.9744 59.5835 62.1908 59.0428 62.5695C60.9893 62.5695 62.6114 62.5695 64.2875 62.5695C67.2072 62.5695 68.4508 63.8137 68.4508 66.6809C68.4508 68.2497 68.5048 69.8185 68.4508 71.3873C68.3967 72.307 67.9641 73.1726 67.9641 74.0381C67.9641 74.9037 68.3967 75.8233 68.4508 76.6889C68.5589 78.3118 68.3426 79.9348 68.5048 81.5036C68.613 82.7478 67.6938 83.8298 68.2885 85.1822C68.7211 86.2642 68.4508 87.7248 68.4508 88.969C68.4508 89.2936 68.5048 89.6182 68.5048 90.051C69.6403 90.051 70.7216 90.051 71.803 90.051C74.939 90.051 77.2099 91.8903 77.6424 94.7575C78.0209 97.4623 76.3448 99.8967 73.4251 100.762C73.3169 100.816 73.2628 100.87 73.1547 100.925C49.3646 100.925 25.5744 100.925 1.78426 100.925C0.432548 100.275 0 99.1394 0 97.6246C0.0540685 91.1329 0 84.6953 0 78.2036C0 75.9856 0.865097 75.1201 3.13597 75.1201C8.86724 75.1201 14.6526 75.1201 20.3838 75.1201C23.3035 75.1201 24.3308 75.9315 24.9256 78.8528C25.8988 78.8528 26.9261 78.8528 28.0616 78.8528C28.0616 78.0413 28.0075 77.2299 28.0616 76.4184C28.1156 75.7692 28.3319 75.066 28.44 74.4168C28.4941 74.2004 28.5482 73.984 28.5482 73.7676C28.386 72.6316 28.1697 71.4414 28.0616 70.3054C27.9534 68.8989 28.0075 67.4923 28.0616 66.0858C28.1156 63.976 29.5214 62.5154 31.6842 62.4613C33.5225 62.4613 35.3608 62.4613 37.2532 62.4613C28.1697 55.0499 25.3581 46.1238 30.7109 35.4666C33.901 29.1372 41.795 23.5652 52.5546 25.5127C52.6627 23.9439 52.6627 22.375 52.879 20.8603C54.1226 10.69 62.4491 1.98028 72.56 0.357355C79.5889 -0.778692 85.969 0.790135 91.6461 5.11793C91.9706 5.38842 92.349 5.65891 92.6194 5.9294C93.1601 6.52447 93.1601 7.17364 92.6734 7.82281C92.1868 8.41788 91.538 8.52607 90.8351 8.20149C90.5648 8.0933 90.3485 7.8769 90.1322 7.66052C83.5359 2.62945 76.3448 1.4393 68.7211 4.63106C61.0974 7.76871 56.7179 13.7735 55.6906 21.9422C54.2848 33.1404 62.5573 43.6894 73.8035 45.2042C87.1585 47.0435 98.7291 36.3863 97.9722 22.916C97.81 19.5079 96.7827 16.3161 95.0525 13.3948C94.9443 13.2326 94.8362 13.0703 94.7281 12.908C93.9711 11.7178 94.0792 10.8523 94.8903 10.3113C95.7013 9.82441 96.4582 10.149 97.2152 11.285C99.1617 14.3686 100.351 17.7226 100.784 21.2931C100.838 21.5636 100.892 21.78 100.946 22.0504C101 23.5111 101 24.8635 101 26.27ZM24.8715 98.0033C25.0878 98.0033 25.3581 98.0574 25.5744 98.0574C41.038 98.0574 56.5016 98.0574 72.0193 98.0574C73.6413 98.0574 74.7768 97.0295 74.7768 95.623C74.7768 94.1624 73.6954 93.1345 71.9652 93.1345C69.424 93.1345 66.8287 93.1345 64.2875 93.1345C58.7184 93.1345 53.0953 93.1345 47.5262 93.1345C46.2827 93.1345 45.5798 92.5936 45.5798 91.6739C45.5798 90.7001 46.2286 90.2133 47.4722 90.1592C49.3105 90.1592 51.1488 90.1592 52.9872 90.1592C53.8522 90.1592 54.7714 90.2133 55.6365 90.1592C56.9882 90.1051 57.9615 89.0772 57.9074 87.833C57.8533 86.5887 56.8801 85.7232 55.5284 85.6691C54.447 85.6691 53.3656 85.615 52.2843 85.6691C48.4995 85.9396 44.9309 85.1822 41.4706 83.6134C39.47 82.6937 37.3614 81.9905 35.1445 82.0446C31.9004 82.0986 28.7104 82.0446 25.4663 82.0446C25.3041 82.0446 25.0878 82.0986 24.8715 82.0986C24.8715 87.4002 24.8715 92.7018 24.8715 98.0033ZM48.2291 72.6316C53.636 72.6316 58.9888 72.6316 64.3956 72.6316C65.2607 72.6316 65.5311 72.3611 65.5311 71.4955C65.477 69.8726 65.477 68.1956 65.5311 66.5727C65.5311 65.8153 65.3148 65.4907 64.5578 65.4907C53.7441 65.4907 42.8763 65.4907 32.0626 65.4907C31.3057 65.4907 30.9813 65.7612 31.0353 66.5186C31.0894 68.0874 31.0353 69.6562 31.0353 71.2251C31.0353 72.5775 31.0353 72.5775 32.333 72.5775C37.6317 72.6316 42.9304 72.6316 48.2291 72.6316ZM31.1435 79.0692C31.5219 79.0692 31.9004 79.0692 32.333 79.0692C34.1172 79.1233 35.9556 78.961 37.6317 79.3397C40.0107 79.8807 42.2816 80.9085 44.6065 81.6118C46.1204 82.0445 47.6344 82.5855 49.2024 82.6396C54.3389 82.7478 59.4754 82.6937 64.5578 82.6937C65.3148 82.6937 65.5311 82.4232 65.5311 81.72C65.477 80.2052 65.5311 78.6905 65.5311 77.1758C65.5311 75.607 65.5311 75.6069 64.0171 75.6069C54.0145 75.6069 43.9577 75.6069 33.955 75.6069C30.765 75.6069 30.765 75.6069 31.0353 78.8528C31.0353 78.8528 31.0353 78.9069 31.1435 79.0692ZM11.4085 78.2577C8.54283 78.2577 5.78533 78.2577 3.02784 78.2577C3.02784 84.8576 3.02784 91.4034 3.02784 98.0033C5.8394 98.0033 8.5969 98.0033 11.4085 98.0033C11.4085 91.4034 11.4085 84.9117 11.4085 78.2577ZM14.4904 78.2036C14.4904 84.9117 14.4904 91.4575 14.4904 98.0574C16.599 98.0574 18.7077 98.0033 20.7623 98.0574C21.6274 98.0574 21.8978 97.7328 21.8978 96.9214C21.8437 94.0542 21.8978 91.187 21.8978 88.374C21.8978 85.3445 21.8978 82.315 21.8978 79.2856C21.8978 78.7987 21.9518 78.2036 21.2489 78.2036C18.9781 78.2036 16.7612 78.2036 14.4904 78.2036ZM60.5567 90.1051C62.1788 90.1051 63.8009 90.1051 65.5311 90.1051C65.5311 88.8067 65.5851 87.5084 65.477 86.2642C65.477 86.0478 65.0985 85.7232 64.8822 85.6691C63.4224 85.615 61.9625 85.6691 60.5027 85.6691C60.6108 86.4805 60.8271 87.1838 60.8271 87.8871C60.8812 88.5903 60.6649 89.3477 60.5567 90.1051Z" fill="#001588"/>
<path d="M76.7774 6.84912C86.3475 6.84912 94.1334 14.5851 94.1334 24.1603C94.1874 33.7356 86.3475 41.6338 76.7233 41.5797C67.2072 41.5797 59.3673 33.7356 59.3673 24.1603C59.4214 14.6392 67.2072 6.84912 76.7774 6.84912ZM76.8314 9.82448C68.8834 9.77039 62.3951 16.208 62.3411 24.1603C62.287 32.0585 68.7752 38.6043 76.7233 38.6584C84.6714 38.7125 91.1596 32.2208 91.1596 24.2685C91.2137 16.3162 84.8336 9.82448 76.8314 9.82448Z" fill="#001588"/>
<path d="M53.636 41.3634C53.636 42.283 53.0953 42.9322 52.2842 43.0404C51.4191 43.0945 50.8244 42.5535 50.6622 41.5798C50.3918 39.9568 49.3105 38.9831 47.8506 39.2536C46.7692 39.4699 45.9582 40.3355 45.9042 41.4175C45.8501 42.5535 46.4989 43.5814 47.5803 43.8518C47.9047 43.96 48.2832 43.96 48.6616 44.0141C51.0947 44.1764 52.9871 45.9076 53.5278 48.3419C54.0144 50.6681 52.879 53.1025 50.7163 54.0763C49.9052 54.455 49.6349 54.8877 49.743 55.6992C49.7971 56.0238 49.743 56.3484 49.743 56.6729C49.689 57.5385 49.1483 58.1336 48.3372 58.1336C47.5262 58.1336 46.7692 57.6467 46.8774 56.8352C47.0396 55.1041 46.3367 54.1845 44.8769 53.3189C43.6333 52.6156 43.0926 51.2091 42.9845 49.6944C42.9304 48.6124 43.3629 47.9092 44.228 47.801C45.0931 47.6928 45.6879 48.2878 45.9042 49.3698C46.1745 50.9927 47.364 51.9124 48.7698 51.6419C49.9593 51.3714 50.7703 50.2894 50.7163 49.0993C50.6081 47.9092 49.6889 46.9895 48.4454 46.8813C46.7692 46.7731 45.3094 46.2321 44.228 44.9338C42.0112 42.283 42.8222 38.2798 45.9582 36.7651C46.7152 36.3864 46.9315 36.0077 46.8233 35.3044C46.7692 34.9258 46.7692 34.493 46.8233 34.1143C46.9315 33.2487 47.5262 32.7078 48.3372 32.7078C49.1483 32.7078 49.6889 33.2487 49.7971 34.1684C49.7971 34.2766 49.7971 34.3848 49.7971 34.4389C49.5808 35.6831 49.9593 36.4946 51.2569 37.0897C52.7168 37.847 53.636 39.7404 53.636 41.3634Z" fill="#001588"/>
<path d="M75.3174 21.8341C75.3174 21.0767 75.3174 20.3193 75.3174 19.562C75.3714 18.6423 75.9121 17.9931 76.7232 17.9931C77.5883 17.939 78.2371 18.5882 78.2371 19.562C78.2911 20.6439 78.183 21.7259 78.2911 22.8078C78.3452 23.2947 78.5615 23.7816 78.8859 24.1602C79.3184 24.7012 79.9132 25.0799 80.3458 25.6209C80.9946 26.27 80.9946 27.1356 80.3998 27.7307C79.8591 28.2717 78.994 28.3798 78.3452 27.7848C77.426 26.9733 76.561 26.1619 75.6959 25.2963C75.4255 25.0258 75.3174 24.5389 75.2633 24.1602C75.2633 23.3488 75.3174 22.5914 75.3174 21.8341Z" fill="#001588"/>
<path d="M66.0178 22.7536C66.8288 22.8077 67.4777 23.511 67.4236 24.3225C67.3695 25.0798 66.7207 25.729 65.9097 25.6749C65.0986 25.6749 64.4498 24.9716 64.5039 24.1061C64.558 23.3487 65.2608 22.6995 66.0178 22.7536Z" fill="#001588"/>
<path d="M78.2912 34.9798C78.2912 35.7371 77.6964 36.4404 76.8854 36.4945C76.0743 36.5486 75.3715 35.8994 75.3174 35.088C75.3174 34.2765 75.9121 33.6273 76.6691 33.5732C77.4801 33.5191 78.2371 34.2224 78.2912 34.9798Z" fill="#001588"/>
<path d="M70.6134 31.842C70.6134 32.6534 69.9646 33.3567 69.1536 33.3567C68.3966 33.3567 67.6937 32.7075 67.6937 31.8961C67.6937 31.0846 68.3426 30.3813 69.1536 30.3813C69.9105 30.4354 70.6134 31.0846 70.6134 31.842Z" fill="#001588"/>
<path d="M87.645 25.6749C86.834 25.6749 86.1852 25.0799 86.1852 24.3225C86.1311 23.511 86.7799 22.8078 87.5909 22.7537C88.402 22.7537 89.1049 23.4569 89.1049 24.2684C89.1049 25.0258 88.456 25.6749 87.645 25.6749Z" fill="#001588"/>
<path d="M85.9149 31.8421C85.9149 32.6535 85.2661 33.3568 84.4551 33.3568C83.6441 33.3568 83.0493 32.7076 82.9952 31.9503C82.9952 31.1388 83.59 30.4896 84.347 30.4355C85.158 30.3814 85.8609 31.0306 85.9149 31.8421Z" fill="#001588"/>
<path d="M78.2913 13.395C78.2913 14.2064 77.5884 14.8556 76.7774 14.8556C75.9663 14.8556 75.3716 14.2064 75.3716 13.395C75.3716 12.5835 75.9663 11.9343 76.7774 11.9343C77.5343 11.8802 78.2913 12.5835 78.2913 13.395Z" fill="#001588"/>
<path d="M69.1536 17.993C68.3425 17.993 67.6397 17.3439 67.6937 16.5324C67.6937 15.775 68.3966 15.1259 69.1536 15.0718C69.9646 15.0718 70.6675 15.775 70.6134 16.5865C70.6134 17.398 69.9646 17.993 69.1536 17.993Z" fill="#001588"/>
<path d="M84.4011 15.0718C85.2121 15.0718 85.915 15.7209 85.915 16.5324C85.915 17.3439 85.2662 17.9389 84.4552 17.9389C83.6442 17.9389 82.9953 17.398 82.9953 16.5865C82.9413 15.775 83.5901 15.1259 84.4011 15.0718Z" fill="#001588"/>
</svg>
