<svg width="101" height="101" viewBox="0 0 101 101" fill="none" xmlns="http://www.w3.org/2000/svg">
<path d="M0 14.503C0.505051 12.476 1.09428 10.5334 2.44108 8.92867C4.62963 6.22597 7.32323 4.7057 10.7744 4.45232C12.5421 4.36786 13.0471 4.79016 13.0471 6.64827C13.0471 10.7868 13.0471 14.9253 13.0471 19.0638C13.0471 19.4861 13.0471 19.8239 13.0471 20.3307C13.468 20.3307 13.8047 20.4152 14.1414 20.4152C28.6195 20.4152 43.1818 20.4152 57.6599 20.4152C58.3333 20.4152 58.8384 20.1618 59.2593 19.7395C65.1515 13.8273 71.0438 7.8307 77.0202 1.91854C79.4613 -0.530788 81.9024 -0.530788 84.3434 1.91854C85.6061 3.18543 86.9529 4.45232 88.2155 5.80367C90.2357 7.91516 90.2357 10.4489 88.2155 12.5604C85.9428 14.9253 83.5859 17.2057 81.3131 19.4861C81.0606 19.7395 80.8923 19.9929 80.4714 20.3307C80.9764 20.3307 81.3131 20.4152 81.6498 20.4152C84.5118 20.4152 87.3737 20.4152 90.2357 20.4152C93.0135 20.4152 93.1818 20.5841 93.1818 23.3712C93.1818 32.4084 93.1818 41.3611 93.1818 50.3983C93.1818 50.8206 93.1818 51.1584 93.1818 51.5807C93.266 51.6652 93.3502 51.6652 93.4343 51.7496C94.5286 50.6516 95.6229 49.5537 96.633 48.4557C96.8855 48.2023 97.0539 48.0334 97.3064 47.78C97.8114 47.2733 98.4007 46.9354 99.1583 47.2733C99.9158 47.6111 100.084 48.2023 100.084 48.9625C100.084 56.057 100.084 63.1516 100.084 70.2462C100.084 79.4523 100.084 88.6584 100.084 97.8645C100.084 99.8915 99.7475 100.229 97.8114 100.229C81.734 100.229 65.5724 100.229 49.4949 100.229C49.0741 100.229 48.7374 100.229 48.3165 100.145C47.2222 99.8915 46.8855 98.5402 47.7273 97.6956C48.6532 96.682 49.5791 95.753 50.5051 94.8239C52.2727 93.0503 54.1246 91.1922 56.0606 89.2496C55.4714 89.2496 55.0505 89.2496 54.7138 89.2496C40.404 89.2496 26.0101 89.2496 11.7003 89.2496C7.07071 89.2496 3.61953 87.3071 1.43098 83.1685C0.757576 81.9861 0.589226 80.5503 0.0841751 79.1989C0 57.5773 0 36.0402 0 14.503ZM2.94613 70.8374C4.79798 68.9793 6.81818 67.7125 9.17508 67.2902C9.93266 67.1212 10.101 66.8679 10.101 66.1922C10.0168 63.4895 10.101 60.8712 10.101 58.1685C10.101 57.0706 10.6061 56.3949 11.532 56.3949C12.3737 56.3949 13.0471 57.0706 13.0471 58.1685C13.0471 61.5469 13.0471 64.9253 13.0471 68.2192C13.0471 69.4016 12.4579 69.9084 11.2795 69.9929C10.6902 70.0773 10.101 70.0773 9.51178 70.2462C4.79798 71.3442 1.93603 76.3273 3.367 80.7192C4.54545 84.2665 7.57576 86.2935 11.532 86.2935C27.0202 86.2935 42.5926 86.2935 58.0808 86.2935C58.5017 86.2935 59.0909 86.0402 59.4276 85.7023C61.1953 84.0131 62.963 82.2395 64.7306 80.4658C65.404 79.7902 66.33 79.7902 66.9192 80.2969C67.5084 80.8881 67.5084 81.7327 66.835 82.4929C66.6667 82.6618 66.4983 82.8307 66.2458 83.0841C61.7845 87.5604 57.4074 91.9523 52.9461 96.4287C52.6936 96.682 52.5253 96.9354 52.1886 97.2733C67.1717 97.2733 82.0707 97.2733 96.9697 97.2733C96.9697 94.9084 96.9697 92.628 96.9697 90.2631C96.1279 90.2631 95.3704 90.2631 94.697 90.2631C93.6027 90.2631 93.0135 89.7564 92.9293 88.8273C92.9293 87.8983 93.5185 87.307 94.697 87.307C95.4545 87.307 96.2121 87.307 97.0539 87.307C97.0539 85.7868 97.0539 84.4354 97.0539 82.9152C96.633 82.9152 96.2121 82.9152 95.8754 82.9152C95.4546 82.9152 95.0337 82.9152 94.6128 82.9152C93.5185 82.8307 92.9293 82.2395 93.0135 81.3949C93.0135 80.5503 93.6027 80.0435 94.697 80.0435C95.5387 80.0435 96.2963 80.0435 97.0539 80.0435C97.0539 78.4388 97.0539 77.0875 97.0539 75.5672C96.5488 75.5672 96.2121 75.5672 95.7913 75.5672C95.3704 75.5672 95.0337 75.5672 94.6128 75.5672C93.5185 75.4827 92.9293 74.976 92.9293 74.0469C92.9293 73.2023 93.5185 72.6956 94.6128 72.6111C95.4546 72.6111 96.2121 72.6111 97.0539 72.6111C97.0539 71.0908 97.0539 69.655 97.0539 68.1348C96.2121 68.1348 95.5387 68.1348 94.7811 68.1348C93.6027 68.1348 93.0135 67.628 93.0135 66.6989C93.0135 65.7699 93.6869 65.2631 94.8653 65.2631C95.6229 65.2631 96.3805 65.2631 97.1381 65.2631C97.1381 60.9557 97.1381 56.7327 97.1381 52.3408C96.8014 52.6787 96.5488 52.932 96.2963 53.1854C88.2155 61.2935 80.1347 69.4016 71.9697 77.5942C70.7071 78.5233 69.8653 78.6922 69.1919 78.0165C68.4343 77.2564 68.6869 76.4962 69.7812 75.3138C76.3468 68.726 82.9125 62.1381 89.4781 55.5503C89.9832 55.0435 90.2357 54.5368 90.2357 53.8611C90.2357 44.0638 90.2357 34.351 90.2357 24.5537C90.2357 24.2158 90.2357 23.878 90.2357 23.3712C89.7306 23.3712 89.3939 23.3712 89.0572 23.3712C85.5219 23.3712 81.9865 23.3712 78.5354 23.3712C77.7778 23.3712 77.2727 23.5402 76.7677 24.1314C67.2559 33.6753 57.7441 43.2192 48.2323 52.8476C47.4747 53.6077 46.633 54.1989 45.5387 54.5368C43.1818 55.2969 40.8249 56.226 38.3838 57.0706C38.3838 57.155 38.3838 57.155 38.3838 57.2395C38.7205 57.2395 39.0572 57.2395 39.3939 57.2395C48.3165 57.2395 57.3232 57.2395 66.2458 57.2395C67.6768 57.2395 68.3502 57.7462 68.3502 58.6753C68.3502 59.6888 67.6768 60.1956 66.2458 60.1956C64.6465 60.1956 63.0471 60.1956 61.4478 60.1956C49.8316 60.1956 38.2997 60.1956 26.6835 60.1956C25.4209 60.1956 24.7475 59.6888 24.7475 58.7598C24.7475 57.8307 25.4209 57.3239 26.6835 57.3239C27.862 57.3239 28.9562 57.2395 30.1347 57.3239C30.8923 57.4084 31.229 57.155 31.4815 56.3949C32.9125 52.2564 34.3434 48.1179 35.8586 44.0638C36.1111 43.4726 36.4478 42.8814 36.8687 42.4591C38.8047 40.432 40.8249 38.4895 42.7609 36.4625C42.9293 36.2935 43.0976 36.1246 43.3502 35.9557C44.0236 35.4489 44.697 35.4489 45.2862 36.0402C45.8754 36.5469 45.8754 37.3915 45.3704 38.0672C45.1178 38.405 44.7811 38.6584 44.5286 38.9962C42.8451 40.6854 41.2458 42.2902 39.6465 43.8949C41.9192 46.1753 44.1077 48.4557 46.2963 50.5672C56.3973 40.4321 66.4983 30.2969 76.5152 20.2462C74.3266 18.0503 72.138 15.8543 69.7812 13.4895C69.6128 13.7429 69.4444 13.9962 69.1919 14.2496C62.7104 20.4996 56.3973 26.7496 50.1684 33.0841C49.8316 33.4219 49.5791 33.8442 49.2424 33.8442C48.6532 33.9287 47.9798 33.8442 47.5589 33.5064C47.2222 33.253 47.3064 32.4929 47.3064 31.9016C47.3064 31.6483 47.7273 31.3104 47.9798 31.057C50.2525 28.7766 52.5253 26.4962 54.798 24.2158C55.0505 23.9625 55.2189 23.7935 55.4714 23.4557C41.2458 23.4557 27.1044 23.4557 12.963 23.4557C12.963 23.9625 12.963 24.3003 12.963 24.7226C12.963 33.5064 12.963 42.2057 12.963 50.9895C12.963 51.4118 12.963 51.8341 12.8788 52.2564C12.7104 53.0165 12.2054 53.3544 11.4478 53.2699C10.6902 53.1854 10.2694 52.7631 10.101 52.0875C10.101 51.6652 10.101 51.2429 10.101 50.8206C10.101 36.8848 10.101 22.8645 10.101 8.92867C10.101 8.50637 10.101 8.08408 10.101 7.49286C9.34343 7.74624 8.75421 7.8307 8.24916 8.08408C4.62963 9.68881 2.94613 12.5604 2.94613 16.53C2.94613 34.2665 2.94613 52.003 2.94613 69.7395C2.94613 69.9929 2.94613 70.2462 2.94613 70.8374ZM83.4175 13.0672C84.3434 12.1381 85.3535 11.2091 86.3636 10.1956C86.8687 9.60435 86.9529 8.84421 86.4478 8.33745C84.8485 6.64827 83.2492 5.04354 81.6498 3.52327C81.0606 3.01651 80.303 3.01651 79.798 3.52327C78.7879 4.53678 77.862 5.55029 76.936 6.47935C79.0404 8.67529 81.229 10.8712 83.4175 13.0672ZM81.1448 15.4321C78.9562 13.2361 76.6835 10.9557 74.5791 8.84421C73.7374 9.68881 72.8956 10.5334 72.0539 11.378C74.2424 13.5739 76.431 15.7699 78.5354 17.9658C79.4613 17.0368 80.303 16.1922 81.1448 15.4321ZM37.963 46.682C36.2795 50.5672 36.2795 50.5672 38.8047 53.0165C38.8889 53.101 38.9731 53.1854 39.0572 53.1854C39.2256 53.2699 39.4781 53.3543 39.6465 53.3543C40.9091 52.932 42.1717 52.5098 43.3502 52.003C41.4983 50.3138 39.7306 48.5402 37.963 46.682Z" fill="#001588"/>
<path d="M79.798 89.7564C77.3569 89.7564 74.8317 89.7564 72.3906 89.7564C71.633 89.7564 70.8754 89.6719 70.5387 88.8273C70.202 88.0672 70.6229 87.476 71.1279 86.8848C76.2626 81.7327 81.3973 76.5807 86.532 71.4287C87.037 70.9219 87.6263 70.4996 88.468 70.8375C89.2256 71.1753 89.3939 71.851 89.3939 72.6111C89.3939 77.6787 89.3939 82.7463 89.3939 87.8138C89.3939 89.2496 88.8889 89.7564 87.4579 89.7564C84.8485 89.7564 82.3232 89.7564 79.798 89.7564ZM86.3636 76.1584C82.9125 79.6213 79.2929 83.253 75.8418 86.7158C79.2088 86.7158 82.7441 86.7158 86.3636 86.7158C86.3636 83.0841 86.3636 79.5368 86.3636 76.1584Z" fill="#001588"/>
</svg>
