<svg width="62" height="63" viewBox="0 0 62 63" fill="none" xmlns="http://www.w3.org/2000/svg">
<path d="M0.528649 45.4654C1.09131 43.7071 1.72429 42.0191 2.28695 40.2608C3.2716 37.3069 4.25625 34.3529 5.2409 31.399C5.52222 30.4847 5.87388 30.2737 6.7882 30.2737C13.6807 30.2737 20.6436 30.2737 27.5362 30.2737C28.8725 30.2737 29.3648 30.9067 28.9428 32.243C27.4658 36.7442 25.9185 41.2455 24.4416 45.7467C24.0899 46.8017 23.8086 47.0127 22.6833 47.0127C20.081 47.0127 17.4787 47.0127 14.8061 47.0127C14.8061 47.7864 14.8061 48.56 14.8061 49.404C15.0874 49.404 15.439 49.404 15.7907 49.404C16.705 49.404 17.127 49.8963 17.127 50.7403C17.127 53.5536 17.127 56.3669 17.127 59.1802C17.127 59.3208 17.127 59.4615 17.127 59.6725C17.338 59.6725 17.549 59.6725 17.76 59.6725C20.2216 59.6725 22.6833 59.6725 25.1449 59.6725C26.0592 59.6725 26.5515 59.9538 26.6922 60.5868C26.8328 61.1495 26.6218 61.5715 25.9185 62.0638C17.4083 62.0638 8.89816 62.0638 0.317651 62.0638C0.317651 61.5715 0.317651 61.0088 0.317651 60.5165C0.669311 59.8835 1.23197 59.6725 1.93529 59.6725C4.39691 59.6725 6.7882 59.6725 9.24982 59.6725C9.46082 59.6725 9.67181 59.6725 9.88281 59.6725C9.88281 59.3912 9.88281 59.1098 9.88281 58.8988C9.88281 56.2262 9.88281 53.5536 9.88281 50.881C9.88281 49.7557 10.3048 49.3337 11.3598 49.3337C11.6411 49.3337 11.9224 49.3337 12.2038 49.3337C12.2038 48.4897 12.2038 47.716 12.2038 46.9424C11.9224 46.9424 11.7114 46.9424 11.5004 46.9424C8.26517 46.9424 5.10023 46.9424 1.86495 46.9424C1.16163 46.9424 0.598975 46.7314 0.247314 46.0984C0.528643 45.9577 0.528649 45.7467 0.528649 45.4654ZM7.35086 32.7353C6.7882 34.3529 6.29588 35.9002 5.80356 37.4476C7.42119 37.4476 8.89816 37.4476 10.4455 37.4476C10.9378 35.9002 11.5004 34.2826 11.9928 32.7353C10.4455 32.7353 8.89816 32.7353 7.35086 32.7353ZM12.9071 37.5179C14.3841 37.5179 15.861 37.5179 17.2677 37.5179C17.4083 37.5179 17.549 37.3772 17.6193 37.3069C18.1117 35.8299 18.604 34.2826 19.1667 32.7353C17.6897 32.7353 16.2127 32.7353 14.8061 32.7353C14.6654 32.7353 14.5247 32.876 14.4544 32.9463C13.9621 34.4233 13.4697 35.9706 12.9071 37.5179ZM21.6986 32.7353C21.2063 34.2826 20.6436 35.9002 20.1513 37.4476C21.7689 37.4476 23.2459 37.4476 24.7932 37.4476C25.2855 35.9002 25.8482 34.2826 26.3405 32.7353C24.7229 32.7353 23.2459 32.7353 21.6986 32.7353ZM9.60148 39.9092C8.12451 39.9092 6.64754 39.9092 5.2409 39.9092C5.10023 39.9092 4.95957 40.0498 4.88924 40.1202C4.39691 41.5971 3.90459 43.1445 3.34193 44.6918C4.81891 44.6918 6.29588 44.6918 7.70252 44.6918C7.84318 44.6918 7.98385 44.5511 8.05418 44.4808C8.61684 42.9335 9.10916 41.4565 9.60148 39.9092ZM16.7754 39.9092C15.1577 39.9092 13.6807 39.9092 12.1334 39.9092C11.6411 41.4565 11.0785 43.0741 10.5861 44.6214C12.2038 44.6214 13.6807 44.6214 15.228 44.6214C15.7204 43.0741 16.2127 41.5268 16.7754 39.9092ZM22.3316 44.6214C22.8239 43.0741 23.3866 41.4565 23.8789 39.9092C22.2613 39.9092 20.7843 39.9092 19.237 39.9092C18.7447 41.4565 18.182 43.0741 17.6897 44.6214C19.3073 44.6214 20.8546 44.6214 22.3316 44.6214ZM14.8061 59.6725C14.8061 56.9999 14.8061 54.4679 14.8061 51.8656C14.0324 51.8656 13.2588 51.8656 12.4851 51.8656C12.4851 54.4679 12.4851 57.0702 12.4851 59.6725C13.2588 59.6725 14.0324 59.6725 14.8061 59.6725Z" fill="#001588"/>
<path d="M36.1166 62.0638C35.9056 61.8528 35.6243 61.7121 35.4836 61.5011C35.3429 61.1494 35.2726 60.6571 35.4133 60.3055C35.5539 59.8131 36.0462 59.6021 36.5386 59.6021C38.2969 59.6021 40.0552 59.6021 41.8135 59.6021C42.0245 59.6021 42.2355 59.6021 42.5168 59.6021C42.5168 59.3208 42.5168 59.1098 42.5168 58.8988C42.5168 56.2262 42.5168 53.5536 42.5168 50.881C42.5168 49.6853 42.8685 49.2633 44.1344 49.2633C44.3454 49.2633 44.6268 49.2633 44.9081 49.2633C44.9081 48.4897 44.9081 47.716 44.9081 46.872C44.6971 46.872 44.4861 46.872 44.2751 46.872C41.1102 46.872 37.8749 46.872 34.7099 46.872C33.233 46.872 32.7406 46.239 33.233 44.8324C34.7099 40.3311 36.1869 35.8299 37.7342 31.399C38.0859 30.344 38.3672 30.133 39.4925 30.133C46.3851 30.133 53.2776 30.133 60.2405 30.133C60.8735 30.133 61.3658 30.2033 61.6471 30.8363C61.7878 31.1176 61.7878 31.5396 61.6471 31.821C60.0998 36.5332 58.5525 41.2455 56.9349 45.9577C56.7239 46.5907 56.3019 46.872 55.5986 46.872C52.9259 46.872 50.2533 46.872 47.5104 46.872C47.5104 47.6457 47.5104 48.4193 47.5104 49.2633C47.7917 49.2633 48.1434 49.2633 48.4247 49.2633C49.4093 49.2633 49.8313 49.6853 49.8313 50.67C49.8313 53.4129 49.8313 56.2262 49.8313 58.9692C49.8313 59.1098 49.8313 59.2505 49.8313 59.5318C50.0423 59.5318 50.2533 59.5318 50.4643 59.5318C53.7699 59.5318 57.0755 59.5318 60.3811 59.5318C61.2251 59.5318 61.7175 60.0241 61.7175 60.7275C61.7175 61.3604 61.2955 61.6418 60.8735 61.9231C52.5743 62.0638 44.3454 62.0638 36.1166 62.0638ZM38.2969 37.4475C39.9145 37.4475 41.3915 37.4475 42.9388 37.4475C43.4311 35.9002 43.9938 34.2826 44.4861 32.7353C42.8685 32.7353 41.3915 32.7353 39.8442 32.7353C39.3518 34.2826 38.7892 35.8299 38.2969 37.4475ZM45.4004 37.5179C46.8774 37.5179 48.3544 37.5179 49.761 37.5179C49.9017 37.5179 50.0423 37.3772 50.1127 37.3069C50.605 35.8299 51.0973 34.2826 51.66 32.7353C50.183 32.7353 48.706 32.7353 47.2994 32.7353C47.1587 32.7353 46.9477 32.9463 46.8774 33.0869C46.3851 34.4936 45.9631 35.9706 45.4004 37.5179ZM54.1919 32.7353C53.6996 34.2826 53.1369 35.9002 52.6446 37.4475C54.2622 37.4475 55.7392 37.4475 57.2865 37.4475C57.7789 35.9002 58.3415 34.2826 58.8338 32.7353C57.2162 32.7353 55.7392 32.7353 54.1919 32.7353ZM37.4529 39.9092C36.9606 41.4565 36.3979 43.0741 35.9056 44.6214C37.5232 44.6214 39.0002 44.6214 40.5475 44.6214C41.0398 43.0741 41.6025 41.4565 42.0948 39.9092C40.4772 39.9092 39.0002 39.9092 37.4529 39.9092ZM44.6268 39.9092C44.1344 41.5268 43.5718 43.0741 43.0795 44.6214C44.6971 44.6214 46.1741 44.6214 47.7214 44.6214C48.2137 43.0741 48.7763 41.4565 49.2687 39.9092C47.651 39.9092 46.1741 39.9092 44.6268 39.9092ZM56.4425 39.9092C54.9656 39.9092 53.4886 39.9092 52.082 39.9092C51.9413 39.9092 51.8006 40.0498 51.7303 40.1202C51.238 41.5971 50.7456 43.1444 50.183 44.6917C51.66 44.6917 53.1369 44.6917 54.5436 44.6917C54.6842 44.6917 54.8249 44.5511 54.8952 44.4807C55.4579 42.9334 55.9502 41.4565 56.4425 39.9092ZM44.9784 51.8656C44.9784 54.5382 44.9784 57.0702 44.9784 59.6725C45.7521 59.6725 46.5257 59.6725 47.2994 59.6725C47.2994 57.0702 47.2994 54.4679 47.2994 51.8656C46.5257 51.8656 45.8224 51.8656 44.9784 51.8656Z" fill="#001588"/>
<path d="M0.528809 11.3543C0.880469 10.7214 1.44312 10.44 2.14644 10.5104C3.20142 10.5807 4.32673 10.5104 5.31138 10.5104C5.59271 9.80704 5.87404 9.10372 6.2257 8.33007C5.38172 7.48608 4.53774 6.71243 3.69375 5.79811C3.20143 5.30579 3.20142 4.6728 3.55308 4.2508C3.90474 3.82881 4.53773 3.61782 5.03006 3.89914C5.24105 4.03981 5.45205 4.18047 5.66304 4.39147C6.43669 5.16512 7.21035 5.93877 7.984 6.71243C8.75766 6.4311 9.39065 6.14977 10.1643 5.79811C10.1643 4.6728 10.1643 3.40682 10.1643 2.21117C10.1643 1.50785 10.5863 1.01553 11.2193 0.945197C11.7819 0.874865 12.3446 1.22653 12.4853 1.78918C12.5556 2.00018 12.5556 2.21117 12.5556 2.35184C12.5556 3.47715 12.5556 4.60247 12.5556 5.72778C13.2589 6.00911 13.9622 6.29044 14.7359 6.6421C15.5095 5.86844 16.2832 5.02446 17.1272 4.2508C17.3382 4.03981 17.6898 3.82881 18.0415 3.75848C18.5338 3.68815 18.9558 3.89914 19.1668 4.32114C19.4481 4.81346 19.3778 5.30579 18.9558 5.72778C18.2525 6.4311 17.5492 7.20475 16.7755 7.90807C16.6348 8.04874 16.4239 8.11907 16.3535 8.25973C16.7052 9.10372 16.9865 9.73671 17.2678 10.5104C18.3931 10.5104 19.5185 10.5104 20.6438 10.5104C21.5581 10.5104 22.1208 11.0027 22.1208 11.706C22.1208 12.4093 21.5581 12.9017 20.7141 12.9017C19.5888 12.9017 18.4635 12.9017 17.3382 12.9017C17.0568 13.605 16.7755 14.3083 16.4239 15.0819C17.2678 15.9259 18.1118 16.6996 18.9558 17.6139C19.4481 18.1062 19.4481 18.7392 19.0965 19.1612C18.7448 19.5832 18.1118 19.7942 17.6195 19.5129C17.4085 19.3722 17.1975 19.2315 17.0568 19.0909C16.2832 18.3172 15.5095 17.4732 14.7359 16.6996C13.9622 16.9809 13.3292 17.2622 12.5556 17.6139C12.5556 18.7392 12.5556 20.0052 12.5556 21.2008C12.5556 21.9042 11.9929 22.4668 11.3599 22.3965C10.727 22.3965 10.2346 21.9042 10.1643 21.1305C10.1643 20.9195 10.1643 20.7085 10.1643 20.5679C10.1643 19.5832 10.1643 18.5986 10.1643 17.6139C9.46098 17.3326 8.75766 17.0512 7.984 16.6996C7.21035 17.5436 6.36637 18.3876 5.45205 19.2315C5.03006 19.6535 4.53773 19.7942 4.11574 19.5129C3.76408 19.3019 3.48275 18.8799 3.41242 18.5282C3.34209 18.1766 3.62341 17.7546 3.90474 17.4732C4.67839 16.6293 5.52238 15.8556 6.29604 15.0819C6.01471 14.3083 5.73338 13.6753 5.38172 12.9017C4.39707 12.9017 3.27176 12.9017 2.21677 12.9017C1.51345 12.9017 0.950795 12.6907 0.599134 12.0577C0.528802 11.8467 0.528809 11.5653 0.528809 11.3543ZM14.8765 11.6357C14.8765 9.66638 13.2589 8.04874 11.2896 8.04874C9.32031 8.04874 7.70268 9.66638 7.70268 11.6357C7.70268 13.605 9.32031 15.2226 11.2896 15.2226C13.2589 15.2929 14.8765 13.6753 14.8765 11.6357Z" fill="#001588"/>
<path d="M30.7714 62.0638C30.7011 61.9934 30.5604 61.9231 30.4901 61.8528C29.9977 61.5011 29.8571 61.0791 29.9977 60.5165C30.2087 59.9538 30.5604 59.6725 31.1231 59.6725C31.6857 59.6725 32.0374 59.9538 32.2484 60.5165C32.4594 61.0791 32.2484 61.5011 31.756 61.8528C31.6857 61.9231 31.5451 61.9934 31.4747 62.0638C31.1934 62.0638 30.9824 62.0638 30.7714 62.0638Z" fill="#001588"/>
<path d="M23.9492 15.9963C24.8635 16.2776 25.7778 16.4886 26.6922 16.7699C31.2637 18.1062 35.9057 19.3722 40.4772 20.7085C41.5322 20.9899 41.9542 21.5525 41.7432 22.3262C41.5322 23.0998 40.8992 23.3108 39.7739 23.0295C34.4287 21.4822 29.0834 19.9349 23.7382 18.4579C23.1756 18.3172 22.7536 17.9656 22.6832 17.3326C22.6129 16.7699 22.8942 16.3479 23.4569 16.1369C23.6679 15.9963 23.8085 15.9963 23.9492 15.9963Z" fill="#001588"/>
<path d="M27.5362 26.6164C27.4658 27.2494 27.2549 27.601 26.8329 27.812C26.3405 28.023 25.9185 27.9527 25.5669 27.601C25.0746 27.1087 24.5822 26.6867 24.0899 26.1944C22.9646 25.0691 21.9096 24.0141 20.7843 22.8888C20.081 22.1855 20.2216 21.2712 20.9953 20.9195C21.4876 20.6382 21.98 20.7788 22.3316 21.1305C23.9492 22.6778 25.4965 24.2954 27.1142 25.9131C27.3252 26.1241 27.4658 26.4054 27.5362 26.6164Z" fill="#001588"/>
</svg>
