<svg width="54" height="54" viewBox="0 0 54 54" fill="none" xmlns="http://www.w3.org/2000/svg">
<g clip-path="url(#clip0_185_672)">
<path d="M27.5048 0.425919C35.812 4.89517 44.1191 9.35886 52.4263 13.817C53.098 14.1781 53.5283 14.7031 53.5616 15.4836C53.588 16.0877 53.3895 16.5502 52.7913 16.8724C44.3879 21.3028 35.9915 25.7475 27.602 30.2066C27.447 30.3039 27.2674 30.3548 27.0844 30.3533C26.9015 30.3519 26.7227 30.298 26.5694 30.1982C18.2548 25.7808 9.93469 21.3736 1.60903 16.9766C1.14963 16.7335 0.765173 16.4683 0.611115 15.953V15.1197C0.8452 14.5465 1.26973 14.0717 1.81305 13.7753C10.1063 9.33108 18.3945 4.87989 26.6776 0.421753L27.5048 0.425919Z" fill="#FFD100"/>
<path d="M0.611115 37.8965C0.852612 37.1632 1.37031 36.7063 2.04761 36.3688C3.00111 35.891 3.94073 35.3827 4.86647 34.8522C5.01045 34.7528 5.1806 34.6983 5.35548 34.6956C5.53036 34.6929 5.70213 34.7421 5.84912 34.8369C12.4903 38.3715 19.144 41.881 25.781 45.424C26.6943 45.9114 27.4937 45.9087 28.407 45.424C35.044 41.881 41.6977 38.3715 48.3402 34.8397C48.6761 34.6619 48.9301 34.6272 49.2785 34.8272C50.293 35.4105 51.3326 35.9507 52.3638 36.5035C53.0814 36.8882 53.5658 37.4396 53.5616 38.2909C53.5574 39.1423 53.0814 39.6798 52.3583 40.0742C44.3083 44.4064 36.2612 48.7428 28.2168 53.0834C27.876 53.2868 27.4866 53.3942 27.0898 53.3942C26.693 53.3942 26.3036 53.2868 25.9628 53.0834C17.9342 48.7428 9.90184 44.4124 1.86579 40.0922C1.30422 39.794 0.862926 39.3107 0.616666 38.7242L0.611115 37.8965Z" fill="#001588"/>
<path d="M0.611115 26.5109C0.869267 25.7873 1.39112 25.3373 2.06704 25.0012C3.00666 24.5332 3.92963 24.029 4.84288 23.5054C4.99575 23.402 5.17557 23.3457 5.36008 23.3435C5.5446 23.3413 5.72572 23.3933 5.88104 23.493C12.4903 27.0122 19.1148 30.5038 25.7185 34.0342C26.6901 34.5508 27.5228 34.5439 28.4847 34.0272C35.0884 30.4968 41.7129 27.0067 48.3236 23.4902C48.6844 23.2985 48.9509 23.2791 49.3145 23.4902C50.3735 24.0971 51.4658 24.6485 52.5331 25.2429C53.4158 25.7345 53.792 26.647 53.4575 27.515C53.3571 27.7646 53.1777 27.9744 52.9467 28.1122C44.4517 32.6287 35.9521 37.1396 27.4479 41.6449C27.1245 41.8172 26.9108 41.7255 26.6471 41.5852C18.2973 37.1595 9.94579 32.7365 1.59237 28.3164C1.15101 28.083 0.774889 27.833 0.62083 27.3442L0.611115 26.5109Z" fill="#001588"/>
</g>
<defs>
<clipPath id="clip0_185_672">
<rect width="52.963" height="52.963" fill="white" transform="translate(0.611115 0.425903)"/>
</clipPath>
</defs>
</svg>
