<svg width="70" height="63" viewBox="0 0 70 63" fill="none" xmlns="http://www.w3.org/2000/svg">
<path d="M67.3989 14.4087C65.0304 13.8739 63.0439 14.1031 61.8979 16.548H61.2103C53.4936 16.548 45.7769 16.548 38.0602 16.548H34.8513C31.5659 16.548 28.5098 17.2356 25.5301 18.6108C20.0291 21.2085 16.0562 25.3343 13.7641 30.9881C13.6877 31.2173 13.4585 31.5229 13.2293 31.5229C11.7012 31.5993 10.1731 31.5229 8.64508 31.5229C8.56868 31.2937 8.56867 31.1409 8.49227 30.9117C8.18666 29.1544 6.8114 28.0848 5.05414 28.0084C4.67212 28.0084 4.2137 28.0084 3.83169 28.0084C1.92161 28.0848 0.393555 29.5364 0.393555 31.5229C0.393555 36.8711 0.393555 42.2957 0.393555 47.6439C0.393555 49.4012 1.53961 50.8529 3.29688 51.0821C4.13731 51.2349 5.05414 51.1585 5.81817 51.0057C7.19342 50.7001 7.95746 49.7832 8.33948 48.4844C8.41588 48.2552 8.41586 48.0259 8.49227 47.7203C9.86752 47.7203 11.2428 47.7203 12.618 47.7203C13.2292 47.7203 13.4585 47.9495 13.6877 48.4844C19.7999 63.3065 38.7478 67.5851 50.5139 56.7359C56.3969 51.3877 58.7654 44.5878 57.8486 36.7183C57.6958 35.3431 57.3137 34.0442 57.0845 32.669C58.5362 32.669 59.9878 32.669 61.4395 32.669C61.5923 32.669 61.7451 32.8218 61.8215 32.9746C63.044 35.0375 66.4057 35.7251 68.2394 34.197C68.8506 33.6622 69.1562 32.8982 69.5382 32.2105V16.93C69.309 15.7075 68.6978 14.6379 67.3989 14.4087ZM5.51256 48.7136C4.74853 48.9428 3.9081 49.0956 3.22047 48.4844C2.91486 48.2552 2.83846 47.7203 2.83846 47.3383C2.83846 44.7406 2.83846 42.0665 2.83846 39.4688V31.8285C2.83846 30.6825 3.22047 30.3005 4.36652 30.3005H4.90135C5.81818 30.3005 6.27659 30.7589 6.27659 31.6757C6.27659 33.433 6.27659 35.2667 6.27659 37.0239C6.27659 40.3857 6.27659 43.8238 6.27659 47.1855C6.27659 47.8731 6.27659 48.4844 5.51256 48.7136ZM8.64508 45.3518V33.8914H12.7708C11.7776 37.7116 11.7776 41.5317 12.7708 45.3518H8.64508ZM61.6687 30.3769H60.2935C59.1474 30.3769 58.0014 30.3769 56.8553 30.3769C56.3969 30.3769 56.2441 30.2241 56.0149 29.8421C55.0981 27.7028 53.7992 25.7927 52.2712 24.1118C51.5835 23.3478 50.8959 23.195 50.3611 23.7298C49.8263 24.2646 49.9026 24.8759 50.5139 25.6399C51.5071 26.7859 52.4239 27.932 53.1116 29.2308C53.6464 30.1477 54.1048 31.0645 54.4868 32.0577C55.6329 35.0375 56.0913 38.2464 55.7857 41.6845C55.098 50.2416 48.451 57.8819 39.9703 59.8684C28.4334 62.5425 17.2022 55.437 14.7573 43.9002C12.236 32.3634 20.1819 20.9029 31.8716 19.1457C31.948 19.1457 32.0244 19.1457 32.1008 19.1457C33.094 18.9928 34.0109 18.9164 35.0041 18.9164C36.9142 18.9164 38.9006 18.9164 40.8107 18.9164C47.5342 18.9164 54.334 18.9164 61.0575 18.9164H61.5923V30.3769H61.6687ZM67.4753 31.2173C67.4753 32.287 67.0933 32.669 66.0237 32.669H65.4124C64.4192 32.669 64.0372 32.287 64.0372 31.2937C64.0372 29.6128 64.0372 28.0084 64.0372 26.3275C64.0372 23.577 64.0372 20.8265 64.0372 18.076C64.0372 16.8536 64.4192 16.4716 65.6417 16.4716C65.7945 16.4716 66.0237 16.4716 66.1765 16.4716C67.0933 16.4716 67.5517 16.8536 67.5517 17.8468V31.2173H67.4753Z" fill="#001588"/>
<path d="M52.5004 39.6216C52.5004 40.3092 52.5004 40.9969 52.5004 41.6845C52.5004 42.5249 52.1948 43.289 51.4308 43.671C49.8263 44.435 48.9095 45.7339 48.1454 47.2619C48.069 47.4911 47.9162 47.6439 47.8398 47.8731C47.0758 48.9428 46.7702 50.0888 46.8466 51.3877C46.923 52.5337 46.3882 53.2977 45.3949 53.8326C44.3253 54.4438 43.2557 55.055 42.186 55.6662C41.422 56.1247 40.5815 56.2011 39.8175 55.7426C38.4423 54.8258 36.9142 54.5966 35.3097 54.7494C35.0805 54.7494 34.9277 54.7494 34.6985 54.7494C33.2469 54.5966 32.0244 54.9022 30.802 55.6662C29.9615 56.2011 29.0447 56.2011 28.1279 55.5898C27.0582 54.9786 25.9886 54.3674 24.9189 53.7562C24.0021 53.2213 23.5437 52.5337 23.6201 51.4641C23.6965 50.0888 23.3909 48.8664 22.5505 47.7203C22.3976 47.4911 22.2448 47.3383 22.1684 47.1091C21.4808 45.6575 20.564 44.435 19.0359 43.7474C18.1955 43.3654 17.8899 42.6013 17.8899 41.6845C17.8899 40.3857 17.8899 39.0104 17.8899 37.7115C17.8899 36.7947 18.1955 36.1071 19.0359 35.6487C20.564 34.8846 21.4808 33.6622 22.2448 32.2105C22.3212 32.0577 22.3976 31.9049 22.5505 31.7521C23.3909 30.5297 23.7729 29.2308 23.6965 27.7792C23.6201 26.8623 24.0785 26.1747 24.9189 25.6399C26.065 24.9523 27.211 24.341 28.3571 23.6534C29.1211 23.195 29.9615 23.1186 30.7256 23.6534C32.1008 24.5702 33.5525 24.7995 35.0805 24.6466C35.2334 24.6466 35.4625 24.6466 35.6154 24.6466C37.1434 24.7995 38.5187 24.4938 39.8175 23.6534C40.5815 23.1186 41.4984 23.195 42.3388 23.6534C43.4849 24.341 44.6309 24.9523 45.7005 25.6399C46.541 26.0983 46.9994 26.7859 46.923 27.7792C46.8466 29.3072 47.2286 30.6061 48.1454 31.8285C48.2982 31.9813 48.3747 32.1341 48.4511 32.3633C49.0623 33.815 50.0555 34.8846 51.5072 35.6487C52.3476 36.0307 52.7296 36.8711 52.6532 37.7879C52.5004 38.3228 52.5004 38.934 52.5004 39.6216ZM50.2083 39.6216C50.2083 39.0868 50.2083 38.552 50.2083 38.0172C50.2083 37.6351 50.1319 37.4059 49.7499 37.1767C48.2218 36.4891 47.2286 35.2667 46.541 33.815C46.3118 33.3566 46.0826 32.8982 45.777 32.4397C44.7837 31.1409 44.4017 29.6892 44.5545 28.0848C44.5545 27.7028 44.4017 27.4736 44.0961 27.3208C43.1792 26.7859 42.3388 26.2511 41.422 25.7927C41.1928 25.6399 40.7343 25.6399 40.5051 25.7927C39.1299 26.7095 37.6018 27.0151 35.9974 26.8623C35.6154 26.7859 35.1569 26.8623 34.7749 26.8623C33.0177 27.0151 31.3368 26.7859 29.8851 25.7927C29.7323 25.6399 29.3503 25.7163 29.1211 25.7927C28.2043 26.3275 27.211 26.8623 26.2942 27.3972C26.065 27.55 25.9122 27.8556 25.9122 28.0848C25.9886 29.7656 25.5302 31.2937 24.5369 32.669C24.3077 33.051 24.0785 33.433 23.8493 33.815C23.1617 35.3431 22.0921 36.5655 20.564 37.2531C20.3348 37.3295 20.182 37.788 20.1056 38.0172C20.0292 39.0868 20.1056 40.08 20.1056 41.1497C20.1056 41.5317 20.182 41.7609 20.564 41.9901C22.0921 42.6777 23.0853 43.9002 23.7729 45.3518C24.0021 45.8103 24.2313 46.2687 24.5369 46.7271C25.4538 48.0259 25.9122 49.4776 25.7594 51.0821C25.7594 51.4641 25.9122 51.6933 26.2178 51.8461C27.1346 52.3809 27.9751 52.9157 28.8919 53.3741C29.1211 53.527 29.5795 53.527 29.8087 53.3741C31.184 52.4573 32.7121 52.1517 34.3165 52.3045C34.7749 52.3809 35.3098 52.3809 35.7682 52.3045C37.449 52.1517 38.9007 52.4573 40.3523 53.3741C40.5816 53.527 40.9636 53.4506 41.2692 53.3741C42.1096 52.9157 42.8736 52.3809 43.7141 51.9989C44.2489 51.6933 44.4781 51.3877 44.4017 50.7764C44.3253 49.4012 44.6309 48.1787 45.3949 47.1091C46.0826 46.1159 46.541 45.0462 47.2286 44.053C47.5342 43.5946 47.9162 43.0598 48.4511 42.8305C49.9027 42.1429 50.5903 41.2261 50.2083 39.6216Z" fill="#001588"/>
<path d="M35.1568 29.2308C40.887 29.2308 45.5476 33.8914 45.5476 39.6216C45.5476 45.3518 40.8871 50.0124 35.0804 50.0124C29.4266 50.0124 24.766 45.3518 24.766 39.698C24.6896 33.8914 29.4266 29.2308 35.1568 29.2308ZM35.1568 31.5229C30.6491 31.5229 27.0581 35.1139 27.0581 39.6216C27.0581 44.053 30.6491 47.6439 35.0804 47.7203C39.5118 47.7203 43.1791 44.1294 43.1791 39.6216C43.1791 35.1903 39.5882 31.5229 35.1568 31.5229Z" fill="#001588"/>
<path d="M35.1568 43.0598C33.2467 43.0598 31.6423 41.4553 31.7187 39.5452C31.7187 37.6352 33.3231 36.1071 35.1568 36.1071C37.0669 36.1071 38.6714 37.7116 38.5949 39.6216C38.5949 41.5317 37.0669 43.0598 35.1568 43.0598ZM36.3029 39.5452C36.3029 38.934 35.7681 38.3992 35.0804 38.3992C34.4692 38.3992 34.0108 38.934 34.0108 39.5452C34.0108 40.1565 34.5456 40.6913 35.1568 40.6913C35.768 40.7677 36.3029 40.2329 36.3029 39.5452Z" fill="#001588"/>
<path d="M50.361 0.808977C50.1318 0.274157 49.6734 0.197754 49.1385 0.197754C42.9499 0.197754 36.8377 0.197754 30.649 0.197754C29.6558 0.197754 29.4266 0.350559 29.121 1.3438C27.8221 5.31675 26.4469 9.3661 25.148 13.3391C24.766 14.5615 25.148 15.1727 26.4469 15.1727H35.5388V17.0828H37.7545V15.0963H45.0128C45.7004 15.0963 46.006 14.8671 46.2352 14.2559C47.6105 10.0537 49.0621 5.85157 50.4374 1.64941C50.5138 1.4202 50.4374 1.03819 50.361 0.808977ZM31.6423 12.957H27.5165C27.9749 11.5054 28.4334 10.1301 28.8918 8.75488H33.0175C32.5591 10.1301 32.1007 11.5054 31.6423 12.957ZM29.6558 6.5392C30.1142 5.08754 30.5726 3.71229 31.031 2.33704H35.1568C34.6984 3.71229 34.24 5.08754 33.7816 6.5392H29.6558ZM38.0601 12.957H33.9344C34.3928 11.5054 34.8512 10.1301 35.3096 8.75488H39.4354C38.9769 10.1301 38.5185 11.5054 38.0601 12.957ZM39.8938 6.5392C38.5949 6.5392 37.3725 6.5392 35.9972 6.5392C36.4557 5.16394 36.8377 3.86509 37.2961 2.56624C37.3725 2.41344 37.5253 2.26063 37.6781 2.26063C38.977 2.26063 40.1994 2.26063 41.5747 2.26063C41.1162 3.63589 40.6578 5.01114 40.1994 6.30999C40.1994 6.46279 39.9702 6.5392 39.8938 6.5392ZM44.478 12.7278C44.478 12.8042 44.2488 12.8806 44.1724 12.8806C42.8735 12.8806 41.6511 12.8806 40.2758 12.8806C40.7342 11.5054 41.1926 10.1301 41.651 8.83128C41.651 8.75488 41.8803 8.67848 41.9567 8.67848C43.2555 8.67848 44.478 8.67848 45.8532 8.67848C45.3948 10.0537 44.9364 11.429 44.478 12.7278ZM46.5409 6.5392H42.4151C42.8735 5.08754 43.3319 3.71229 43.7903 2.33704H47.9161C47.4577 3.71229 46.9993 5.16394 46.5409 6.5392Z" fill="#001588"/>
</svg>
