<svg width="111" height="100" viewBox="0 0 111 100" fill="none" xmlns="http://www.w3.org/2000/svg">
<path d="M24.7111 91.5374C24.7111 90.336 24.7111 89.2547 24.7111 87.8129C27.1102 88.0532 29.5093 87.8129 31.6685 88.4136C38.1462 90.2158 44.3839 92.3784 50.7416 94.5411C55.18 95.9828 59.2585 95.6224 63.337 93.4598C75.5726 87.092 87.6882 80.6042 99.8037 74.1163C101.723 73.1551 103.642 72.0738 105.562 71.1127C103.882 67.7486 99.5638 66.3068 95.7252 67.8687C90.927 69.9112 86.1287 71.9537 81.3305 73.9962C77.7318 75.558 74.253 76.9998 70.6544 78.4415C69.9346 78.802 69.0949 78.9221 68.2552 78.9221C62.3774 78.9221 56.3795 78.9221 50.5017 78.9221C50.3817 78.9221 50.1418 78.9221 49.9019 78.9221C49.9019 77.8408 49.9019 76.7595 49.9019 75.5581C50.3817 75.5581 50.8615 75.5581 51.2214 75.5581C56.6195 75.5581 61.8975 75.5581 67.2956 75.5581C67.8954 75.5581 68.3752 75.5581 68.975 75.4379C70.5344 75.0775 71.494 73.6357 71.494 72.0738C71.494 70.5119 70.4144 69.1903 68.975 68.8299C68.4951 68.7097 67.8954 68.7098 67.4155 68.7098C63.2171 68.7098 58.8986 68.8299 54.7002 68.7098C53.1407 68.7098 51.5813 68.3493 50.1418 67.7486C46.6631 66.3068 43.3043 64.7449 39.9455 63.183C37.9063 62.2219 35.747 61.7413 33.4679 61.7413C30.5889 61.8615 27.71 61.7413 24.831 61.7413C24.831 60.5398 24.831 59.4585 24.831 58.3772C24.951 58.3772 24.951 58.2571 25.0709 58.2571C29.2694 58.3772 33.3479 58.1369 37.5464 58.6175C40.0655 58.978 42.3446 60.2996 44.7438 61.3809C47.1429 62.4622 49.542 63.6636 52.0611 64.6248C53.0208 64.9852 53.9804 65.2255 54.9401 65.2255C59.1385 65.3457 63.337 65.2255 67.5355 65.2255C72.2138 65.2255 74.8528 67.7486 75.2127 72.4343C75.2127 72.5544 75.2127 72.5544 75.3326 72.7947C76.1723 72.4343 77.012 72.194 77.8517 71.8335C83.3697 69.5508 88.8877 67.1479 94.5257 64.8651C101.483 61.9816 108.441 65.4658 110.36 72.7947C110.12 72.9148 109.76 73.1551 109.4 73.2753C94.2858 81.0847 79.5311 88.8942 64.7765 96.8238C60.0982 99.3469 55.18 99.7073 50.1418 98.1454C43.6642 96.103 37.3065 93.9403 30.8288 91.8979C30.349 91.7777 29.7492 91.6576 29.1494 91.6576C27.71 91.5374 26.2705 91.5374 24.7111 91.5374Z" fill="#001588"/>
<path d="M56.6194 0.106711C57.5791 -0.253726 57.939 0.347002 58.2988 1.18802C59.8583 5.15283 61.5377 8.99749 63.2171 12.8421C63.457 13.4429 63.8168 13.6832 64.5366 13.8033C68.735 14.2839 72.8136 14.8846 77.012 15.3652C78.0916 15.4854 78.4515 15.9659 78.8114 16.9271C79.1712 17.8883 78.5715 18.2487 77.9717 18.7293C74.8528 21.4926 71.614 24.256 68.4951 27.0193C68.0153 27.4999 67.7754 27.8603 68.0153 28.5812C68.855 32.7863 69.6947 36.9914 70.5344 41.1965C70.7743 42.0375 70.2945 42.398 69.6947 42.8786C69.0949 43.3591 68.6151 43.4793 67.8953 42.9987C64.1767 40.7159 60.578 38.5533 56.8594 36.2705C56.2596 35.9101 55.8997 35.9101 55.2999 36.2705C51.5813 38.4332 47.7427 40.3555 44.024 42.5181C43.0644 43.1189 42.5845 42.5181 41.9848 42.1577C41.265 41.7972 41.265 41.1965 41.5049 40.5958C42.4646 36.3907 43.4242 32.1856 44.5038 27.9805C44.6238 27.2596 44.5039 26.8992 44.024 26.4186C40.9052 23.5351 37.7863 20.5315 34.5475 17.648C33.7078 16.9271 34.1876 16.3264 34.3076 15.6055C34.4275 14.8846 35.0273 14.7645 35.6271 14.7645C39.9455 14.404 44.2639 14.0436 48.5824 13.6832C49.3021 13.6832 49.542 13.3227 49.7819 12.722C51.5813 8.87734 53.3806 5.03268 55.18 1.06788C55.2999 0.226856 55.6598 -0.133581 56.6194 0.106711ZM45.7034 37.472C48.8223 35.6698 51.8212 34.1079 54.5802 32.4259C55.6598 31.8252 56.4995 31.8252 57.4591 32.546C59.9782 34.2281 62.6173 35.6698 65.2563 37.2317C65.4962 37.3519 65.7361 37.472 66.216 37.7123C65.4962 33.9878 64.8964 30.5036 64.1767 27.0193C64.0567 26.2985 64.1767 26.0582 64.6565 25.5776C67.0557 23.5351 69.5747 21.3725 71.9739 19.2099C72.2138 18.9696 72.4537 18.7293 72.9335 18.3688C72.5736 18.2487 72.3337 18.2487 72.0938 18.2487C68.855 17.8883 65.6162 17.4077 62.3774 17.0472C61.5377 16.9271 61.0578 16.5667 60.698 15.7256C59.4984 12.8421 58.2988 9.95865 57.0993 7.07516C56.9793 6.71472 56.8594 6.47443 56.6194 5.99385C55.06 9.35792 53.5006 12.6019 52.0611 15.8458C51.8212 16.4465 51.3414 16.807 50.7416 16.807C49.542 16.9271 48.3425 17.0472 47.1429 17.0472C44.7438 17.2875 42.4646 17.5278 40.0655 17.648C40.0655 17.7681 39.9455 17.7681 39.9455 17.8883C40.1854 18.1286 40.5453 18.3688 40.7852 18.6091C43.0644 20.7718 45.4635 22.9344 47.7427 25.097C48.3425 25.5776 48.4624 26.0582 48.2225 26.8992C47.3828 30.3834 46.5431 33.7475 45.7034 37.472Z" fill="#001588"/>
<path d="M94.6455 49.1262C91.4067 47.2039 88.0479 45.1614 84.8091 43.2391C84.2093 42.8786 83.7295 42.8786 83.1297 43.2391C80.1308 44.9211 77.0119 46.6031 73.8931 48.4053C73.4132 48.6456 72.9334 48.8859 72.4536 48.4053C71.9738 47.8046 71.0141 47.6844 71.374 46.483C72.3336 42.9988 73.0534 39.6347 73.7731 36.1505C73.8931 35.79 73.6532 35.1893 73.4133 34.8289C72.6935 33.9878 71.7339 33.267 70.8942 32.4259C71.7339 31.5849 72.4536 30.7439 73.2933 29.9029C74.7328 31.2245 76.1722 32.5461 77.4918 33.9878C77.7317 34.3483 77.7317 35.0692 77.6117 35.5497C77.0119 38.1929 76.4122 40.716 75.8124 43.4793C76.2922 43.2391 76.5321 43.1189 76.772 42.9988C78.8113 41.7973 80.8505 40.5959 83.0098 39.5145C83.6095 39.2743 84.5692 39.2743 85.169 39.6347C87.4481 40.9563 89.7273 42.2779 92.2464 43.8398C91.8865 41.7973 91.5267 39.9951 91.1668 38.0728C90.3271 33.5073 89.8473 35.0692 93.206 31.9454C94.5256 30.7439 95.9651 29.5425 97.5245 28.1007C94.0458 27.7403 90.8069 27.2597 87.928 26.8993C86.7284 24.0158 85.6488 21.1323 84.3293 18.0085C83.3696 20.0509 82.41 21.733 81.8102 23.6553C80.9705 25.9381 79.7709 27.3798 77.1319 27.0194C76.772 27.0194 76.2922 27.1395 75.8124 27.1395C75.6924 25.9381 75.5725 24.8568 75.4525 23.7755C75.6924 23.6553 75.9323 23.5352 76.1722 23.5352C77.4918 23.6553 78.2115 23.0546 78.6913 21.8531C79.8909 18.9696 81.3304 16.0861 82.6499 13.3228C82.8898 12.7221 83.1297 12.1213 84.0894 12.1213C85.049 12.1213 85.6488 12.3616 86.0087 13.3228C87.3282 16.5667 88.6477 19.6905 89.9672 22.8143C90.2071 23.415 90.567 23.6553 91.1668 23.7755C94.6455 24.1359 98.0043 24.6165 101.363 24.9769C101.963 25.0971 102.563 24.9769 102.683 25.8179C102.923 26.659 103.042 27.5 102.323 28.1007C101.843 28.5813 101.363 29.0619 100.763 29.4223C98.724 31.2245 96.6848 33.0267 94.5256 34.8289C93.9258 35.3094 93.6859 35.9102 93.9258 36.631C94.6455 39.875 95.1254 42.9988 95.8451 46.2427C96.085 47.4442 95.965 48.165 94.8854 48.6456C95.0054 48.7658 94.8854 48.8859 94.6455 49.1262Z" fill="#001588"/>
<path d="M9.83638 24.3762C13.555 24.0158 17.3936 23.6553 21.1123 23.4151C22.0719 23.2949 22.4318 23.0546 22.9116 22.2136C24.3511 18.9697 25.7906 15.7257 27.35 12.6019C27.5899 12.2415 28.5496 12.0012 29.1494 12.0012C29.5092 12.0012 29.989 12.2415 30.109 12.6019C31.3086 15.3653 32.748 18.1286 33.7077 21.0121C34.4274 22.9345 35.3871 24.0158 37.4263 23.7755C37.6663 23.7755 37.9062 23.7755 38.1461 23.8956C38.0261 25.0971 37.9062 26.1784 37.6663 27.2597C35.9869 27.1396 34.4274 27.0194 32.868 26.7791C32.5081 26.7791 32.1483 26.2985 32.0283 25.9381C31.0687 23.7755 30.109 21.4927 29.1494 19.21C29.0294 18.8495 28.7895 18.4891 28.5496 17.8884C27.47 20.2913 26.2704 22.574 25.3108 24.9769C24.8309 26.1784 24.1112 26.659 22.7917 26.7791C20.2726 26.8993 17.7535 27.1396 14.9945 27.3799C16.7938 29.0619 18.4732 30.7439 20.1526 32.1857C21.5921 33.3871 21.952 34.5886 21.3522 36.2706C20.7524 38.4333 20.2726 40.716 19.6728 43.2391C22.1919 41.7973 24.4711 40.5959 26.7502 39.2743C27.5899 38.7937 28.3097 38.7937 29.2693 39.2743C31.4285 40.716 33.7077 42.0376 36.2268 43.4794C35.747 41.1966 35.507 38.9138 34.9073 36.8714C34.3075 34.8289 34.6673 33.3871 36.4667 32.3058C37.1864 31.8252 37.6663 31.2245 38.386 30.6238C39.1057 31.4648 39.8255 32.3058 40.6652 33.267C40.1853 33.7476 39.7055 34.2282 39.1057 34.5886C38.1461 35.1893 38.1461 35.9102 38.386 36.8714C39.1057 40.1153 39.5856 43.3592 40.4253 46.7233C40.6652 47.9248 39.8255 48.165 39.2257 48.7658C38.6259 49.3665 38.1461 48.8859 37.6663 48.6456C34.6673 46.8434 31.6684 45.0413 28.6695 43.2391C28.3097 42.9988 27.7099 42.9988 27.2301 43.2391C24.1112 44.9211 20.9923 46.6032 17.8735 48.4053C16.7938 49.1262 16.314 48.165 15.7142 47.8046C14.9945 47.4442 15.2344 46.9636 15.3544 46.3629C16.1941 42.8786 17.0338 39.3944 17.7535 36.0303C17.8735 35.6699 17.6335 35.0692 17.3936 34.8289C14.7546 32.3058 11.9956 29.9029 9.2366 27.3799C9.11664 27.2597 8.87673 26.8993 8.99668 26.659C9.35655 25.6978 9.71642 25.0971 9.83638 24.3762Z" fill="#001588"/>
<path d="M0 97.7851C0 96.5836 0 95.5023 0 94.3008C5.75791 94.3008 11.6358 94.3008 17.3937 94.3008C17.3937 81.9258 17.3937 69.671 17.3937 57.1758C11.6358 57.1758 5.75791 57.1758 0 57.1758C0 55.9744 0 54.8931 0 53.8118C0.359869 53.8118 0.719738 53.8118 1.07961 53.8118C6.35769 53.8118 11.5158 53.8118 16.7939 53.8118C19.6728 53.8118 20.8724 55.1334 20.8724 57.8967C20.8724 69.7911 20.8724 81.6856 20.8724 93.7001C20.8724 96.5836 19.5529 97.9052 16.6739 97.9052C11.5158 97.9052 6.35769 97.9052 1.19956 97.9052C0.839695 97.7851 0.479826 97.7851 0 97.7851Z" fill="#001588"/>
<path d="M12.8354 88.8942C12.8354 90.2158 11.7558 91.2971 10.4362 91.2971C9.11672 91.2971 8.03711 90.0957 8.03711 88.7741C8.03711 87.4525 9.11672 86.3712 10.5562 86.4913C11.8757 86.4913 12.8354 87.5726 12.8354 88.8942Z" fill="#001588"/>
</svg>
