<svg width="20" height="17" viewBox="0 0 20 17" fill="none" xmlns="http://www.w3.org/2000/svg">
<path fill-rule="evenodd" clip-rule="evenodd" d="M19.6234 2.29735C18.904 2.61693 18.1299 2.83216 17.3178 2.92934C18.1468 2.43235 18.7834 1.64578 19.0828 0.708536C18.3079 1.169 17.4476 1.50229 16.5339 1.68295C15.8014 0.9029 14.7572 0.415039 13.6035 0.415039C11.3866 0.415039 9.58904 2.21256 9.58904 4.42945C9.58904 4.74382 9.62491 5.05036 9.6934 5.34452C6.35664 5.17755 3.39882 3.57896 1.41868 1.15009C1.07301 1.74296 0.875382 2.43236 0.875382 3.16806C0.875382 4.56055 1.58304 5.78934 2.66116 6.50939C2.00242 6.48852 1.38411 6.30785 0.842118 6.00717V6.05739C0.842118 8.00296 2.22678 9.62504 4.06213 9.99485C3.72558 10.0862 3.37078 10.1357 3.00488 10.1357C2.74595 10.1357 2.49419 10.1103 2.24896 10.0633C2.75965 11.658 4.24279 12.819 5.99922 12.8516C4.62565 13.9277 2.89465 14.5702 1.01365 14.5702C0.688846 14.5702 0.36926 14.5512 0.055542 14.5134C1.83219 15.6522 3.94212 16.3175 6.20924 16.3175C13.593 16.3175 17.6309 10.2003 17.6309 4.89579C17.6309 4.72164 17.6277 4.54816 17.6192 4.37663C18.4044 3.80919 19.0854 3.10219 19.6234 2.29735Z" fill="white"/>
</svg>
