<svg width="47" height="51" viewBox="0 0 47 51" fill="none" xmlns="http://www.w3.org/2000/svg">
<g clip-path="url(#clip0_187_813)">
<path d="M13.0002 25.0708C13.0016 24.6675 13.0871 24.2688 13.2516 23.8994C13.416 23.53 13.6558 23.1979 13.9561 22.9236L22.9901 14.6859C23.8383 13.8774 24.5519 13.1506 25.1308 12.5056C25.6659 11.9328 26.1189 11.2907 26.4771 10.597C26.7806 9.96066 26.9347 9.2653 26.9281 8.56239C26.9475 7.82538 26.7513 7.09842 26.3627 6.46819C25.9918 5.87998 25.4598 5.40677 24.8278 5.10298C24.1423 4.77607 23.3882 4.61261 22.6266 4.62582C21.8458 4.60986 21.0731 4.7852 20.3782 5.13611C19.7423 5.47208 19.2221 5.98647 18.8837 6.61399C18.8105 6.74934 18.7453 6.88874 18.6885 7.0315C18.4942 7.56859 18.1381 8.03458 17.6679 8.3673C17.1976 8.70003 16.6355 8.88367 16.0564 8.89375C15.5887 8.89365 15.1286 8.77738 14.7186 8.55572C14.3087 8.33405 13.9621 8.01416 13.7111 7.62564C13.4601 7.23713 13.3127 6.79256 13.2825 6.33307C13.2524 5.87357 13.3406 5.41401 13.5388 4.99694C13.6694 4.7185 13.8178 4.44846 13.983 4.18842C14.8208 2.84891 16.0341 1.77642 17.4768 1.10013C19.0929 0.345307 20.8651 -0.0290527 22.6535 0.00664788C24.4612 -0.0343774 26.2553 0.323391 27.9043 1.05374C29.3168 1.67919 30.5242 2.67978 31.3913 3.94322C32.2329 5.19819 32.6694 6.67439 32.6434 8.178C32.6406 9.2377 32.428 10.2867 32.0174 11.2663C31.4645 12.5007 30.717 13.6414 29.8026 14.6462C28.4076 16.2204 26.9124 17.7057 25.326 19.093L21.2264 23.0694V23.2616H30.5835C31.2268 23.2616 31.8439 23.5127 32.2995 23.9599C32.755 24.4072 33.0119 25.014 33.0136 25.6474C33.0119 26.2807 32.755 26.8875 32.2995 27.3348C31.8439 27.782 31.2268 28.0332 30.5835 28.0332H15.9823C15.5882 28.0341 15.1978 27.9579 14.8338 27.809C14.4698 27.6601 14.1395 27.4415 13.862 27.1659C13.5846 26.8903 13.3655 26.5631 13.2175 26.2035C13.0696 25.8438 12.9957 25.4588 13.0002 25.0708Z" fill="#001588"/>
</g>
<path d="M3.90246 44C3.80913 44 3.72513 43.9673 3.65046 43.902C3.58513 43.8273 3.55246 43.7433 3.55246 43.65V40.64L0.304462 34.648C0.295128 34.62 0.285795 34.5967 0.276462 34.578C0.267128 34.55 0.262462 34.522 0.262462 34.494C0.262462 34.4193 0.290462 34.354 0.346462 34.298C0.411795 34.2327 0.486462 34.2 0.570462 34.2H2.32046C2.46046 34.2 2.56779 34.2373 2.64246 34.312C2.72646 34.3773 2.78246 34.438 2.81046 34.494L4.81246 38.106L6.82846 34.494C6.85646 34.438 6.9078 34.3773 6.98246 34.312C7.06646 34.2373 7.17846 34.2 7.31846 34.2H9.06846C9.15246 34.2 9.22246 34.2327 9.27846 34.298C9.33446 34.354 9.36246 34.4193 9.36246 34.494C9.36246 34.522 9.3578 34.55 9.34846 34.578C9.34846 34.5967 9.3438 34.62 9.33446 34.648L6.08646 40.64V43.65C6.08646 43.7433 6.04913 43.8273 5.97446 43.902C5.90913 43.9673 5.82513 44 5.72246 44H3.90246ZM10.7718 44C10.6691 44 10.5851 43.9673 10.5198 43.902C10.4544 43.8273 10.4218 43.7433 10.4218 43.65V34.55C10.4218 34.4473 10.4544 34.3633 10.5198 34.298C10.5851 34.2327 10.6691 34.2 10.7718 34.2H17.3098C17.4124 34.2 17.4964 34.2327 17.5618 34.298C17.6271 34.3633 17.6598 34.4473 17.6598 34.55V35.866C17.6598 35.9687 17.6271 36.0527 17.5618 36.118C17.4964 36.1833 17.4124 36.216 17.3098 36.216H12.8438V38.106H17.0018C17.1044 38.106 17.1884 38.1433 17.2538 38.218C17.3191 38.2833 17.3518 38.3673 17.3518 38.47V39.688C17.3518 39.7813 17.3191 39.8653 17.2538 39.94C17.1884 40.0053 17.1044 40.038 17.0018 40.038H12.8438V41.984H17.4218C17.5244 41.984 17.6084 42.0167 17.6738 42.082C17.7391 42.1473 17.7718 42.2313 17.7718 42.334V43.65C17.7718 43.7433 17.7391 43.8273 17.6738 43.902C17.6084 43.9673 17.5244 44 17.4218 44H10.7718ZM18.6632 44C18.5885 44 18.5185 43.972 18.4532 43.916C18.3972 43.8507 18.3692 43.7807 18.3692 43.706C18.3692 43.6593 18.3738 43.6173 18.3832 43.58L21.6732 34.592C21.7012 34.4893 21.7572 34.4007 21.8412 34.326C21.9345 34.242 22.0605 34.2 22.2192 34.2H24.2912C24.4498 34.2 24.5712 34.242 24.6552 34.326C24.7485 34.4007 24.8092 34.4893 24.8372 34.592L28.1132 43.58C28.1318 43.6173 28.1412 43.6593 28.1412 43.706C28.1412 43.7807 28.1085 43.8507 28.0432 43.916C27.9872 43.972 27.9172 44 27.8332 44H26.1112C25.9712 44 25.8638 43.9673 25.7892 43.902C25.7238 43.8273 25.6818 43.762 25.6632 43.706L25.1172 42.278H21.3792L20.8472 43.706C20.8285 43.762 20.7865 43.8273 20.7212 43.902C20.6558 43.9673 20.5438 44 20.3852 44H18.6632ZM21.9532 40.262H24.5572L23.2552 36.566L21.9532 40.262ZM29.4546 44C29.352 44 29.268 43.9673 29.2026 43.902C29.1373 43.8273 29.1046 43.7433 29.1046 43.65V34.55C29.1046 34.4473 29.1373 34.3633 29.2026 34.298C29.268 34.2327 29.352 34.2 29.4546 34.2H33.2626C34.476 34.2 35.428 34.48 36.1186 35.04C36.8093 35.5907 37.1546 36.3747 37.1546 37.392C37.1546 38.0547 36.996 38.6147 36.6786 39.072C36.3613 39.5293 35.9413 39.8747 35.4186 40.108L37.3366 43.552C37.3646 43.608 37.3786 43.6593 37.3786 43.706C37.3786 43.7807 37.346 43.8507 37.2806 43.916C37.2246 43.972 37.1593 44 37.0846 44H35.2226C35.0453 44 34.9146 43.958 34.8306 43.874C34.7466 43.7807 34.686 43.6967 34.6486 43.622L33.0526 40.542H31.6246V43.65C31.6246 43.7433 31.5873 43.8273 31.5126 43.902C31.4473 43.9673 31.3633 44 31.2606 44H29.4546ZM31.6246 38.554H33.2346C33.6733 38.554 34 38.4467 34.2146 38.232C34.4386 38.0173 34.5506 37.728 34.5506 37.364C34.5506 37 34.4433 36.706 34.2286 36.482C34.0233 36.258 33.692 36.146 33.2346 36.146H31.6246V38.554ZM42.2983 44.14C41.365 44.14 40.5903 44.0093 39.9743 43.748C39.3583 43.4773 38.8917 43.1273 38.5743 42.698C38.257 42.2687 38.089 41.8113 38.0703 41.326C38.0703 41.2513 38.0983 41.186 38.1543 41.13C38.2197 41.0647 38.2943 41.032 38.3783 41.032H40.1423C40.273 41.032 40.371 41.0553 40.4363 41.102C40.511 41.1487 40.5763 41.2093 40.6323 41.284C40.707 41.424 40.8097 41.5593 40.9403 41.69C41.0803 41.8207 41.2623 41.928 41.4863 42.012C41.7103 42.0867 41.981 42.124 42.2983 42.124C42.8397 42.124 43.2457 42.04 43.5163 41.872C43.7963 41.704 43.9363 41.4753 43.9363 41.186C43.9363 40.9713 43.8617 40.7987 43.7123 40.668C43.563 40.5373 43.3203 40.4207 42.9843 40.318C42.6577 40.206 42.219 40.094 41.6683 39.982C40.959 39.8327 40.3523 39.6413 39.8483 39.408C39.3537 39.1653 38.9757 38.8527 38.7143 38.47C38.453 38.078 38.3223 37.5927 38.3223 37.014C38.3223 36.4447 38.481 35.936 38.7983 35.488C39.125 35.04 39.5777 34.69 40.1563 34.438C40.735 34.186 41.421 34.06 42.2143 34.06C42.8583 34.06 43.423 34.144 43.9083 34.312C44.403 34.48 44.8183 34.704 45.1543 34.984C45.4903 35.264 45.7423 35.5627 45.9103 35.88C46.0877 36.188 46.181 36.4913 46.1903 36.79C46.1903 36.8647 46.1623 36.9347 46.1063 37C46.0597 37.056 45.9897 37.084 45.8963 37.084H44.0483C43.9457 37.084 43.857 37.0653 43.7823 37.028C43.7077 36.9907 43.6423 36.93 43.5863 36.846C43.5303 36.6407 43.381 36.4633 43.1383 36.314C42.905 36.1553 42.597 36.076 42.2143 36.076C41.8037 36.076 41.4817 36.1507 41.2483 36.3C41.0243 36.44 40.9123 36.6593 40.9123 36.958C40.9123 37.1447 40.973 37.308 41.0943 37.448C41.225 37.588 41.435 37.7093 41.7243 37.812C42.023 37.9147 42.429 38.022 42.9423 38.134C43.7917 38.2927 44.4777 38.4933 45.0003 38.736C45.523 38.9693 45.9057 39.2773 46.1483 39.66C46.4003 40.0333 46.5263 40.5047 46.5263 41.074C46.5263 41.7087 46.3443 42.2547 45.9803 42.712C45.6163 43.1693 45.117 43.524 44.4823 43.776C43.857 44.0187 43.129 44.14 42.2983 44.14Z" fill="#001588"/>
<defs>
<clipPath id="clip0_187_813">
<rect width="20" height="28" fill="white" transform="translate(13)"/>
</clipPath>
</defs>
</svg>
