<svg width="56" height="55" viewBox="0 0 56 55" fill="none" xmlns="http://www.w3.org/2000/svg">
<g clip-path="url(#clip0_185_679)">
<path d="M0.5 27.077C0.939968 25.8164 1.84547 25.3067 3.18286 25.3782C4.03858 25.4232 4.89968 25.3782 5.75943 25.3888C7.05646 25.4073 8.02519 26.3368 8.00636 27.5258C7.98752 28.7149 7.03628 29.5914 5.75943 29.6099C4.89968 29.6219 4.03858 29.5755 3.18286 29.6205C1.85219 29.692 0.939968 29.1823 0.5 27.9217V27.077Z" fill="#FFD100"/>
<path d="M46.6683 20.9517C47.9533 20.9517 49.1628 20.9425 50.3724 20.9517C52.0838 20.9703 53.5073 21.586 54.5434 22.963C55.1416 23.7526 55.4759 24.7055 55.5 25.6901C55.5241 26.6747 55.2368 27.6423 54.6779 28.4593C54.2743 29.0392 46.4706 38.1966 45.9835 38.7103C45.6191 39.1079 45.1119 39.3505 44.5691 39.3868C44.0262 39.4232 43.4903 39.2504 43.0746 38.905C42.6458 38.5619 42.3696 38.068 42.3045 37.5279C42.2395 36.9878 42.3907 36.4441 42.7261 36.0118C42.9885 35.657 50.6644 26.7433 50.9039 26.3686C51.0478 26.1421 51.2039 25.7608 51.1057 25.5874C50.9832 25.3742 50.6038 25.1901 50.332 25.1901C47.8981 25.1597 45.4628 25.1782 43.0289 25.1703C41.7197 25.1703 40.7886 24.4195 40.7537 23.208C40.7375 22.6863 40.9609 22.0984 41.2394 21.6363C43.8765 17.2668 46.5486 12.908 49.2113 8.54908C49.3081 8.38886 49.4023 8.22732 49.5355 8.00223C49.296 7.98767 49.1427 7.97178 48.9893 7.97178C46.7692 7.97178 44.5492 7.97972 42.3292 7.96118C41.9552 7.96118 41.7574 8.083 41.5731 8.39416C37.7654 14.8468 33.9532 21.296 30.1366 27.7416C29.1383 29.4285 30.0962 31.0955 32.0687 31.1061C33.6079 31.1154 35.1485 31.1061 36.6877 31.1061C38.6036 31.1061 39.5683 32.4567 38.9252 34.2243C37.4936 38.1524 36.0611 42.077 34.6278 45.9981C34.5612 46.1507 34.5277 46.3153 34.5295 46.4813C34.6331 46.3609 34.7421 46.2443 34.839 46.1186C37.5353 42.6759 40.2294 39.2276 42.9212 35.7735C43.5374 34.9791 44.3097 34.6057 45.3054 34.8466C45.6281 34.9256 45.9272 35.0787 46.1782 35.2933C46.4293 35.5079 46.6251 35.778 46.7496 36.0814C46.8742 36.3848 46.924 36.713 46.8949 37.0389C46.8658 37.3649 46.7586 37.6795 46.5822 37.9569C46.2777 38.4128 45.9489 38.8526 45.5973 39.2744C42.0426 43.8248 38.4861 48.3757 34.9278 52.927C34.3673 53.6576 33.5675 54.1752 32.6638 54.3924C31.7602 54.6095 30.808 54.5128 29.9684 54.1186C28.6727 53.5162 27.9502 52.0187 28.4117 50.6601C29.3993 47.7962 30.4541 44.9547 31.4861 42.1066C32.2355 40.0357 32.9957 37.9688 33.7492 35.9006C33.8084 35.7378 33.8541 35.5722 33.9295 35.3366C33.1827 35.3366 32.4925 35.3485 31.8023 35.3366C28.0525 35.2558 25.2391 32.2912 25.4328 28.6129C25.4966 27.6067 25.8063 26.6305 26.3356 25.7674C30.4223 18.8637 34.5076 11.9595 38.5915 5.05483C39.1122 4.17299 39.8495 3.75855 40.8788 3.75988C44.9421 3.75988 49.0054 3.75061 53.0687 3.76782C55.1421 3.77577 56.0947 5.47456 55.025 7.22897C52.3502 11.6161 49.6705 16.0023 46.9859 20.3877C46.889 20.5519 46.8015 20.7187 46.6683 20.9517Z" fill="#001588"/>
<path d="M11.1736 27.5046C11.2005 23.7891 12.4931 20.1898 14.8446 17.2828C17.1961 14.3757 20.4705 12.329 24.1439 11.47C24.7682 11.3244 25.4073 11.229 26.045 11.1443C27.3084 10.9761 28.4009 11.756 28.5503 12.908C28.7131 14.1672 27.9058 15.1774 26.5832 15.335C23.8923 15.6554 21.5122 16.6789 19.5424 18.5128C16.4882 21.3622 15.1023 24.8684 15.6405 28.9982C16.3469 34.4839 20.3362 38.5541 25.8432 39.5511C26.7622 39.7166 27.4578 40.1483 27.7269 41.054C27.969 41.8484 27.7968 42.5925 27.1712 43.1884C26.9268 43.425 26.6278 43.5999 26.2997 43.6979C25.9717 43.7959 25.6243 43.8142 25.2875 43.7511C18.3947 42.7369 12.6778 37.2128 11.4803 30.3779C11.3189 29.4378 11.2745 28.4646 11.1736 27.5046Z" fill="#001588"/>
<path d="M30.0572 4.2061C30.0572 4.80458 30.0949 5.40572 30.0491 6.00155C30.0019 6.51479 29.7589 6.99137 29.3689 7.33533C28.979 7.67928 28.4711 7.86506 27.9475 7.85527C26.8483 7.85527 25.9024 7.07273 25.8486 6.00155C25.7894 4.79002 25.7894 3.57186 25.8486 2.36033C25.9024 1.2865 26.8496 0.49867 27.9448 0.497346C28.4786 0.48873 28.9953 0.682416 29.3881 1.03832C29.7808 1.39422 30.0194 1.88508 30.0545 2.40932C30.0962 3.00516 30.0613 3.60099 30.0613 4.20345L30.0572 4.2061Z" fill="#FFD100"/>
<path d="M3.90674 39.955C3.90674 39.1896 4.23234 38.5739 4.89162 38.186C5.84287 37.6285 6.80891 37.0896 7.79917 36.5971C8.2908 36.3525 8.85964 36.305 9.38611 36.4646C9.91259 36.6242 10.3557 36.9784 10.6223 37.4528C10.8888 37.9273 10.9581 38.4849 10.8155 39.0086C10.673 39.5322 10.3296 39.9811 9.85773 40.2608C8.92667 40.8169 7.97408 41.3479 6.99324 41.8113C5.51592 42.5118 3.90943 41.5174 3.90674 39.955Z" fill="#FFD100"/>
<path d="M15.9285 43.9762C17.8189 43.9762 18.8885 45.5518 18.1875 46.9408C17.6723 47.9449 17.0963 48.9176 16.4626 49.8538C16.1655 50.3172 15.6953 50.6473 15.1532 50.773C14.6112 50.8987 14.0407 50.81 13.5645 50.5258C13.0883 50.2417 12.7446 49.785 12.6072 49.2539C12.4698 48.7228 12.5497 48.1599 12.8299 47.6863C13.3371 46.7594 13.8901 45.8511 14.4512 44.952C14.8561 44.3125 15.4683 43.9855 15.9285 43.9762Z" fill="#FFD100"/>
<path d="M16.8743 10.6001C16.5231 10.6042 16.1768 10.519 15.869 10.3527C15.5611 10.1863 15.3021 9.94453 15.1171 9.65071C14.5346 8.76623 13.96 7.87512 13.434 6.95621C13.1658 6.49316 13.0886 5.94644 13.2183 5.42897C13.348 4.91151 13.6747 4.46283 14.1309 4.17564C14.3583 4.02502 14.6136 3.91996 14.8823 3.86645C15.1509 3.81295 15.4276 3.81206 15.6966 3.86382C15.9657 3.91559 16.2217 4.019 16.4501 4.16815C16.6784 4.3173 16.8747 4.50926 17.0277 4.73308C17.6676 5.64345 18.2555 6.5881 18.7889 7.56264C18.9613 7.8821 19.0456 8.24047 19.0332 8.60198C19.0209 8.9635 18.9125 9.31551 18.7187 9.62289C18.525 9.93027 18.2527 10.1823 17.9291 10.3537C17.6054 10.5252 17.2417 10.6101 16.8743 10.6001Z" fill="#FFD100"/>
<path d="M8.94145 18.1725C8.53781 18.0295 8.12475 17.9289 7.75475 17.7355C6.94747 17.3171 6.1644 16.8617 5.38269 16.4009C4.26595 15.7388 3.90267 14.5392 4.48257 13.5038C5.06247 12.4684 6.35143 12.1188 7.49777 12.7411C8.38847 13.2231 9.27916 13.7143 10.1376 14.2506C10.5363 14.4956 10.8392 14.8661 10.997 15.3019C11.1548 15.7377 11.1582 16.2132 11.0067 16.6511C10.7336 17.4906 9.88059 18.0957 8.94145 18.1725Z" fill="#FFD100"/>
</g>
<defs>
<clipPath id="clip0_185_679">
<rect width="55" height="54" fill="white" transform="translate(0.5 0.5)"/>
</clipPath>
</defs>
</svg>
