<svg width="21" height="15" viewBox="0 0 21 15" fill="none" xmlns="http://www.w3.org/2000/svg">
<path d="M1.43164 6.5C0.879356 6.5 0.431641 6.94772 0.431641 7.5C0.431641 8.05228 0.879356 8.5 1.43164 8.5L1.43164 6.5ZM20.6387 8.20711C21.0293 7.81658 21.0293 7.18342 20.6387 6.79289L14.2748 0.428932C13.8843 0.0384078 13.2511 0.0384078 12.8606 0.428932C12.47 0.819457 12.47 1.45262 12.8606 1.84315L18.5174 7.5L12.8606 13.1569C12.47 13.5474 12.47 14.1805 12.8606 14.5711C13.2511 14.9616 13.8843 14.9616 14.2748 14.5711L20.6387 8.20711ZM1.43164 8.5H19.9316V6.5H1.43164L1.43164 8.5Z" fill="white"/>
</svg>
