<svg width="30" height="32" viewBox="0 0 30 32" fill="none" xmlns="http://www.w3.org/2000/svg">
<path d="M13.5858 30.7343C14.3668 31.5153 15.6332 31.5153 16.4142 30.7343L29.1421 18.0064C29.9232 17.2253 29.9232 15.959 29.1421 15.1779C28.3611 14.3969 27.0948 14.3969 26.3137 15.1779L15 26.4916L3.68629 15.1779C2.90524 14.3969 1.63891 14.3969 0.857864 15.1779C0.0768156 15.959 0.0768156 17.2253 0.857864 18.0064L13.5858 30.7343ZM17 2.32007C17 1.2155 16.1046 0.320068 15 0.320068C13.8954 0.320068 13 1.2155 13 2.32007H17ZM17 29.3201V2.32007H13V29.3201H17Z" fill="#FFD100"/>
</svg>
