<svg width="22" height="15" viewBox="0 0 22 15" fill="none" xmlns="http://www.w3.org/2000/svg">
<path fill-rule="evenodd" clip-rule="evenodd" d="M20.7815 1.35356C21.1069 1.67896 21.3414 2.08392 21.4616 2.52813C22.1537 5.31414 21.9938 9.71423 21.475 12.6077C21.3548 13.052 21.1204 13.4569 20.795 13.7823C20.4696 14.1077 20.0646 14.3422 19.6204 14.4624C17.9942 14.9059 11.4492 14.9059 11.4492 14.9059C11.4492 14.9059 4.90415 14.9059 3.27797 14.4624C2.83376 14.3422 2.42879 14.1077 2.10339 13.7823C1.778 13.4569 1.54352 13.052 1.42332 12.6077C0.727155 9.83384 0.917996 5.43107 1.40988 2.54157C1.53008 2.09737 1.76456 1.69239 2.08996 1.367C2.41535 1.0416 2.82032 0.807122 3.26453 0.686926C4.89071 0.243417 11.4357 0.22998 11.4357 0.22998C11.4357 0.22998 17.9808 0.22998 19.607 0.673482C20.0512 0.793686 20.4561 1.02816 20.7815 1.35356ZM14.7822 7.56794L9.35262 10.7128V4.4231L14.7822 7.56794Z" fill="white"/>
</svg>
